<svg id="Background" xmlns="http://www.w3.org/2000/svg" xmlns:xlink="http://www.w3.org/1999/xlink" viewBox="0 0 800 800"><defs><style>.cls-1,.cls-11{fill:none;}.cls-2{fill:#fff;}.cls-3{clip-path:url(#clip-path);}.cls-4{fill:#ff4d35;}.cls-5{fill:#8d4666;}.cls-6{fill:#0c80a6;}.cls-7{fill:#0aa4c9;}.cls-8{fill:#ffbd09;}.cls-9{fill:#6dcecd;}.cls-10{fill:#454c53;}.cls-11{stroke:#454c53;stroke-miterlimit:10;stroke-width:5px;}</style><clipPath id="clip-path"><rect class="cls-1" width="800" height="800"/></clipPath></defs><title>music1</title><rect class="cls-2" width="800" height="800"/><g class="cls-3"><path class="cls-4" d="M156.41,433.47l-1.49,1.22-1.18,1-3,2.44-2.68,2.19L131,454.22a8.72,8.72,0,0,0-6.56-7.67c-4.57-1.31-9.24.79-10.37,4.75s1.63,8.2,6.2,9.51a9,9,0,0,0,8.25-1.5,1.63,1.63,0,0,0,.49-0.21l20.54-16.75,17.83,21.86L150.4,478a8.74,8.74,0,0,0-6.57-7.68c-4.57-1.31-9.24.78-10.37,4.74s1.63,8.2,6.2,9.51a9,9,0,0,0,8.26-1.49,1.56,1.56,0,0,0,.5-0.2l20.67-16.86,2.68-2.18,3-2.44,1.18-1,1.49-1.22ZM170,462.08l-17.83-21.86,3.26-2.66,17.83,21.86Z"/><path class="cls-4" d="M278.19,193.55l1.23-1.88,1-1.49,2.47-3.77,2.21-3.37,14.12-21.52a10.18,10.18,0,0,0,10,6.23c5.55-.15,10-4.12,9.87-8.93s-4.7-8.56-10.24-8.4a10.46,10.46,0,0,0-8.65,4.57,1.87,1.87,0,0,0-.48.4l-17,25.87-27.54-18.06,14-21.35a10.2,10.2,0,0,0,10,6.24c5.55-.15,10-4.12,9.88-8.93s-4.7-8.56-10.24-8.4a10.49,10.49,0,0,0-8.66,4.56,1.85,1.85,0,0,0-.49.4l-17.08,26-2.21,3.37-2.47,3.77-1,1.49-1.24,1.88ZM253,166.47l27.54,18.06-2.7,4.11-27.54-18.06Z"/><path class="cls-4" d="M501.31,316.66l1.09,1.59,0.86,1.26,2.18,3.19,1.95,2.86,12.42,18.22a8.72,8.72,0,0,0-8.2,5.88c-1.7,4.44,0,9.27,3.84,10.74s8.31-.92,10-5.36a9,9,0,0,0-.79-8.35,1.59,1.59,0,0,0-.16-0.51l-14.93-21.89,23.31-15.9,12.32,18.08a8.74,8.74,0,0,0-8.21,5.88c-1.69,4.44,0,9.27,3.84,10.74s8.31-.92,10-5.36a9,9,0,0,0-.78-8.35,1.62,1.62,0,0,0-.15-0.51l-15-22L532.91,304l-2.18-3.19-0.86-1.26-1.08-1.59ZM531,305.6l-23.3,15.9L505.29,318l23.31-15.89Z"/><path class="cls-5" d="M384.69,565.36l-0.18-.26c-0.55-.76-1.12-1.51-1.7-2.25s-1.16-1.48-1.76-2.21-1.19-1.46-1.8-2.18l-0.92-1.07-0.93-1.07q-0.94-1.06-1.9-2.1c-0.64-.69-1.29-1.38-2-2.06s-1.34-1.35-2-2-1.39-1.31-2.12-1.93a0.24,0.24,0,0,0-.37.28c0.4,0.88.84,1.72,1.29,2.57s0.91,1.67,1.39,2.49,1,1.63,1.45,2.44,1,1.6,1.51,2.4l0.78,1.18c0.26,0.39.52,0.79,0.79,1.17,0.53,0.78,1.06,1.55,1.61,2.32s1,1.34,1.44,2c-0.2.08-.4,0.15-0.59,0.25a13.47,13.47,0,0,0-3.49,2.38,13.08,13.08,0,0,0-1.39,1.53,9.34,9.34,0,0,0-.6.83,9.55,9.55,0,0,0-.53.87,13.48,13.48,0,0,0-.84,1.84c-0.08.2-.11,0.3-0.17,0.48s-0.1.36-.14,0.53a7.78,7.78,0,0,0-.18,1.05,10,10,0,0,0,.55,4.24,13.17,13.17,0,0,0,.86,1.95,15.17,15.17,0,0,0,1.11,1.76,18.54,18.54,0,0,0,2.08,2.37c-0.39.16-.77,0.33-1.15,0.52a11.71,11.71,0,0,0-1.87,1.16,9.41,9.41,0,0,0-1.71,1.63,7.92,7.92,0,0,0-1.27,2.2,7.12,7.12,0,0,0-.47,2.53,8.11,8.11,0,0,0,.35,2.38,9.85,9.85,0,0,0,.84,2,13,13,0,0,0,1.1,1.73,18.2,18.2,0,0,0,1.25,1.52c0.44,0.47.9,0.92,1.36,1.35s1,0.82,1.44,1.22l0.74,0.57,0.76,0.54a29.65,29.65,0,0,0,3.15,1.93,0.23,0.23,0,0,0,.25,0,0.24,0.24,0,0,0,.05-0.33h0c-0.37-.49-0.74-1-1.11-1.45l-1.09-1.43-1.05-1.43c-0.34-.47-0.67-1-1-1.44s-0.61-1-.9-1.45-0.54-1-.77-1.46a9.72,9.72,0,0,1-.91-2.82,4.46,4.46,0,0,1,0-1.2,2.86,2.86,0,0,1,.31-1,3.36,3.36,0,0,1,.63-0.84,6.36,6.36,0,0,1,.95-0.79,12.21,12.21,0,0,1,1.21-.7c0.44-.22.91-0.41,1.38-0.6s1-.34,1.48-0.49l0.76-.21,0.38-.09,0.33-.07,0.37-.08a2.33,2.33,0,0,0,.53-4.36c-0.19-.09-0.47-0.25-0.7-0.39l-0.74-.45q-0.74-.46-1.45-1c-0.94-.67-1.82-1.41-2.68-2.15-0.43-.37-0.82-0.78-1.23-1.17a13.21,13.21,0,0,1-1.08-1.26,7.28,7.28,0,0,1-.83-1.41,4.9,4.9,0,0,1-.43-1.56,4.51,4.51,0,0,1,0-.82c0-.14,0-0.27,0-0.39s0.07-.33.09-0.43a7,7,0,0,1,.63-1.61,5.81,5.81,0,0,1,1.06-1.36,5.63,5.63,0,0,1,1.4-1,9.12,9.12,0,0,1,3.26-.85c0.56,0,1.11-.06,1.66-0.07,0.27,0,.53.6,0.81,0h0.39a1.89,1.89,0,0,1,.32.06,1.91,1.91,0,0,0,1.43-.26A2,2,0,0,0,384.69,565.36Z"/><polygon class="cls-6" points="555.64 609.39 548.54 601.67 522.48 625.65 529.59 633.37 526.69 636.03 528.91 638.45 531.88 635.71 557.75 611.91 560.76 609.14 558.54 606.73 555.64 609.39"/><polygon class="cls-6" points="398.64 174.39 391.54 166.67 365.48 190.65 372.59 198.37 369.69 201.03 371.91 203.45 374.88 200.71 400.75 176.91 403.76 174.14 401.54 171.73 398.64 174.39"/><polygon class="cls-4" points="443.84 554.9 436.22 555 436.55 580.69 444.16 580.6 444.2 583.45 446.58 583.42 446.54 580.49 446.22 554.99 446.18 552.02 443.8 552.05 443.84 554.9"/><polygon class="cls-7" points="402.22 409.34 396.18 409.42 396.43 429.82 402.48 429.75 402.51 432.02 404.4 431.99 404.37 429.67 404.11 409.41 404.08 407.05 402.19 407.07 402.22 409.34"/><polygon class="cls-4" points="387.88 342.11 379.63 335.6 363.7 355.75 371.94 362.27 370.17 364.51 372.75 366.55 374.56 364.25 390.39 344.24 392.23 341.91 389.65 339.87 387.88 342.11"/><polygon class="cls-6" points="545.06 120.63 541.94 112.29 513.81 122.81 516.93 131.15 513.8 132.32 514.78 134.92 517.98 133.72 545.91 123.28 549.16 122.06 548.18 119.46 545.06 120.63"/><path class="cls-8" d="M174.48,425.71a25.83,25.83,0,0,0,8.13-1,36.38,36.38,0,0,0,7.38-2.92,62.47,62.47,0,0,0,6.79-4c1.94-1.43,4.14-3.35,4.38-4.26a2,2,0,0,0-1.5-2.39L155.79,400c3.8-2.85,5.33-8.76,3.3-14.21-2.43-6.53-9-10.12-14.65-8s-8.28,9.11-5.85,15.64a13,13,0,0,0,9,8.34c2.21,0.6,48.58,12.62,48.58,12.62l-0.2.06a23.49,23.49,0,0,1-6.51,3.76c-9.35,3.24-14.17,3.26-16.44,3.27a38.18,38.18,0,0,1-4.45-.6,13.74,13.74,0,0,1-2.32-.65c-0.68-.27-1.48-0.25-2-0.52s-1.06-.21-1.33-0.38l-0.41-.26a0.24,0.24,0,0,1,.36.16c0.06,0.15.23,0.19,0.34,0.39a7.66,7.66,0,0,0,.44.63,10.11,10.11,0,0,0,1.38,1.73,11.56,11.56,0,0,0,2.34,1.8,13.7,13.7,0,0,0,3.26,1.38A17.94,17.94,0,0,0,174.48,425.71Z"/><path class="cls-8" d="M490.56,385.47a20.6,20.6,0,0,0,6.18,2.11,29,29,0,0,0,6.32.44,50,50,0,0,0,6.26-.51c1.89-.36,4.14-1,4.62-1.57a1.56,1.56,0,0,0-.26-2.23L486,360.48c3.72-.74,6.85-4.48,7.27-9.1,0.5-5.54-3-10.38-7.8-10.81s-9.1,3.71-9.59,9.25a10.42,10.42,0,0,0,3.59,9.1c1.38,1.19,30.65,25.81,30.65,25.81l-0.16,0a18.81,18.81,0,0,1-6,.47c-7.85-.88-11.33-2.53-13-3.3a30.54,30.54,0,0,1-3-2,11.21,11.21,0,0,1-1.45-1.27c-0.4-.43-1-0.69-1.23-1.05s-0.69-.52-0.83-0.73l-0.21-.33a0.19,0.19,0,0,1,.2.24c0,0.13.1,0.21,0.11,0.4a6.07,6.07,0,0,0,.09.61,8.11,8.11,0,0,0,.4,1.72,9.25,9.25,0,0,0,1.07,2.11A11,11,0,0,0,488,383.7,14.25,14.25,0,0,0,490.56,385.47Z"/><path class="cls-4" d="M443.58,617.32l1.59,1.69,7.31,7.76,18.21,19.34c-3.89.31-7.6,3.79-8.58,8.47-1.18,5.6,1.77,11,6.63,12s9.73-2.68,10.92-8.28a10.71,10.71,0,0,0-2.58-9.72,1.81,1.81,0,0,0-.35-0.52l-21.89-23.24,24.74-23.3,18.07,19.19c-3.89.31-7.61,3.8-8.59,8.48-1.18,5.6,1.77,11,6.62,12s9.74-2.68,10.92-8.28a10.73,10.73,0,0,0-2.57-9.73,1.85,1.85,0,0,0-.34-0.52l-22-23.4-7.31-7.76-1.59-1.69Z"/><path class="cls-8" d="M455.93,470.88l0.81,0.85,3.69,3.92,9.2,9.77a5.23,5.23,0,0,0-4.34,4.28c-0.6,2.83.9,5.56,3.35,6.07s4.92-1.35,5.52-4.18a5.42,5.42,0,0,0-1.3-4.91,0.93,0.93,0,0,0-.18-0.26l-11.06-11.75,12.5-11.77,9.13,9.7a5.24,5.24,0,0,0-4.34,4.29c-0.6,2.83.89,5.56,3.35,6.08s4.92-1.35,5.51-4.18a5.42,5.42,0,0,0-1.3-4.92,1,1,0,0,0-.17-0.26l-11.13-11.82-3.69-3.92-0.8-.85Z"/><path class="cls-5" d="M283.79,220.44a1.89,1.89,0,1,0,2.73,2.61l29.83-31.18c0.46,4.36,4.83,8.55,10.3,9.4,6.56,1,12.61-2.73,13.5-8.41s-3.69-11.11-10.25-12.14a12.53,12.53,0,0,0-11.17,3.5,2.24,2.24,0,0,0-.64.37Z"/><path class="cls-5" d="M182.93,466a1.89,1.89,0,1,0,2.73,2.61l29.83-31.18c0.46,4.37,4.83,8.55,10.3,9.41,6.56,1,12.61-2.73,13.5-8.41S235.6,427.32,229,426.29a12.53,12.53,0,0,0-11.17,3.5,2.23,2.23,0,0,0-.64.37Z"/><path class="cls-8" d="M183,536.41a13.28,13.28,0,0,0-5.75.23,14.09,14.09,0,0,0-4.81,2.33,17.58,17.58,0,0,0-3.44,3.4l-0.21.29q-3.37-2.65-6.87-5.31a45.42,45.42,0,0,0-.09-6.34,28.92,28.92,0,0,0-.69-3.91l-0.3-1-0.27-1c-0.18-.63-0.35-1.33-0.56-2l-0.3-.88-0.17-.49-0.19-.47c-0.28-.62-0.58-1.22-0.91-1.81a25.38,25.38,0,0,0-2.24-3.34,29.8,29.8,0,0,0-5.71-5.46,35.37,35.37,0,0,0-6.74-3.88c-2.37-1-7.64-3.83-11.34-2.54s-6.66,4.59,3.8,14.81c0.88,0.86,1.79,1.67,2.69,2.49s1.8,1.64,2.7,2.44L147,528.9l5.33,4.69,5,4.4c0,0.13,0,.25,0,0.38-0.24,2.4-.56,4.84-0.75,7.37a41,41,0,0,0,.07,7.72,32.06,32.06,0,0,0,1.79,7.57l0.35,0.9,0.18,0.45,0,0.11,0.06,0.15,0.09,0.2c0.07,0.14.11,0.25,0.19,0.43l0.23,0.49c0.16,0.3.31,0.61,0.48,0.9a19,19,0,0,0,2.39,3.33,17.79,17.79,0,0,0,6.66,4.65,18.85,18.85,0,0,0,7.81,1.32,20.6,20.6,0,0,0,7.47-1.77,22.09,22.09,0,0,0,6.14-4.15c0.23-.21.44-0.43,0.66-0.65,2.75,2.37,5.43,4.63,7.91,6.78,1.28,1.12,2.54,2.17,3.76,3.25l1.8,1.58L205,579.4l0.38,0.35c0.25,0.24.49,0.47,0.71,0.72a7.65,7.65,0,0,1,1.8,3.1,4.62,4.62,0,0,1-.26,3.08,6.66,6.66,0,0,1-2,2.45,7.52,7.52,0,0,1-2.66,1.38c-0.23.06-.46,0.11-0.68,0.15l-0.16,0-0.2,0h-0.3a4.59,4.59,0,0,1-1.24-.17,5.45,5.45,0,0,1-2.08-1.15l-0.2-.19a3.8,3.8,0,0,0,3.57-6.48,4.06,4.06,0,0,0-5,.1,4.48,4.48,0,0,0-1.59,3.6,6.93,6.93,0,0,0,1.9,4,8.44,8.44,0,0,0,2.82,1.76,6,6,0,0,0,1.71.13c0.16,0,.32-0.24.48-0.24h0.2l0.24,0.25a8.14,8.14,0,0,0,.92,0,9.5,9.5,0,0,0,3.61-1.33,8.79,8.79,0,0,0,3-3.12,7.42,7.42,0,0,0,.83-2.3,7.51,7.51,0,0,0,0-2.58,10.27,10.27,0,0,0-2.22-4.67c-0.27-.34-0.55-0.66-0.84-1l-0.22-.23-0.12-.13-0.1-.1-0.42-.41-1.7-1.68c-1.14-1.15-2.36-2.3-3.61-3.48-2.47-2.37-5.11-4.75-7.86-7.28l0.08-.12,0.47-.77,0.43-.79a18.28,18.28,0,0,0,2-6.81,18.09,18.09,0,0,0-.72-6.83,18.81,18.81,0,0,0-2.95-5.81A16.63,16.63,0,0,0,183,536.41Zm3.79,27.7a16.07,16.07,0,0,1-10.15,4.35,13.92,13.92,0,0,1-5.58-.91,13,13,0,0,1-4.72-3.19,13.55,13.55,0,0,1-1.77-2.36c-0.13-.21-0.25-0.44-0.37-0.65l-0.16-.3c0-.09-0.12-0.26-0.18-0.38l-0.09-.2-0.06-.15-0.16-.38-0.32-.75a28.07,28.07,0,0,1-1.67-6.35,29.15,29.15,0,0,1-.28-3.35c0-1.13,0-2.29,0-3.46,0.06-1.37.17-2.78,0.29-4.21l5.05,4.48a12.47,12.47,0,0,0-.93,4,12.15,12.15,0,0,0,3.46,9.17,7.88,7.88,0,0,0,4,2.3,4.21,4.21,0,0,0,1.72,0,4,4,0,0,0,2-1.15,2.36,2.36,0,1,0-3.34.16,2.22,2.22,0,0,0,.24.19l-0.35-.09a6.89,6.89,0,0,1-3.15-2.33A10.74,10.74,0,0,1,168,553.6a10,10,0,0,1,.64-5.49l3.84,3.37,4.81,4.14q2.37,2,4.68,4l5,4.27Zm-32.1-32.7q-2.47-2-4.94-4.07t-4.92-4.23c-1.62-1.45-3.23-2.92-4.79-4.47-0.78-.76-1.54-1.55-2.28-2.36s-1.46-1.63-2.12-2.49a14.83,14.83,0,0,1-2.28-3.92c-0.74-2.36,2.33-2.12,2.84-2.12a13,13,0,0,1,3.12.45,27.68,27.68,0,0,1,11.23,6.39,24.07,24.07,0,0,1,4.08,4.91,19.63,19.63,0,0,1,1.43,2.78c0.2,0.48.38,1,.54,1.45l0.12,0.37,0.1,0.36,0.23,0.81c0.07,0.26.11,0.5,0.17,0.75s0.11,0.49.16,0.75l0.14,0.77,0.11,0.78a27.71,27.71,0,0,1,.2,3.12c0,0.82,0,1.63-.08,2.46Zm34.81,14.13a13.29,13.29,0,0,1,.71,14.3l-0.33.58,0,0q-2.36-2.11-4.85-4.28-4.57-4-9.55-8.13-2.13-1.77-4.36-3.54l0.19-.21a15.44,15.44,0,0,1,3-2.59,10.6,10.6,0,0,1,3.74-1.5,10.11,10.11,0,0,1,4.15.11A12.46,12.46,0,0,1,189.49,545.54Z"/><path class="cls-4" d="M647.29,306.24a11.82,11.82,0,0,0,3.58-3.68,12.54,12.54,0,0,0,1.68-4.46,15.69,15.69,0,0,0,.13-4.31c0-.11,0-0.21,0-0.32q3.8-.36,7.71-0.79a40.77,40.77,0,0,0,4,4,25.92,25.92,0,0,0,2.85,2.1l0.78,0.43,0.77,0.45c0.5,0.3,1,.64,1.56.92L671,301l0.41,0.21,0.41,0.18c0.56,0.23,1.13.43,1.7,0.61a22.48,22.48,0,0,0,3.5.78,26.58,26.58,0,0,0,7,0,31.56,31.56,0,0,0,6.75-1.63c2.17-.78,7.3-2.22,8.89-5.33s1.49-7.06-11.56-7.25c-1.09,0-2.19,0-3.27,0l-3.25.08-6.43.21-6.33.24-5.93.21-0.21-.27c-1.32-1.7-2.61-3.48-4-5.23a36.56,36.56,0,0,0-4.79-5,28.59,28.59,0,0,0-5.81-3.8l-0.78-.37-0.39-.18-0.1,0-0.13-.06-0.18-.08-0.38-.16-0.45-.17c-0.29-.1-0.57-0.2-0.87-0.29a16.87,16.87,0,0,0-3.59-.68,15.88,15.88,0,0,0-7.17,1.09,16.8,16.8,0,0,0-5.87,3.95,18.34,18.34,0,0,0-3.74,5.74,19.71,19.71,0,0,0-1.42,6.46c0,0.28,0,.55,0,0.83-3.24.16-6.35,0.34-9.29,0.47-1.52.06-3,.16-4.43,0.21l-2.14.08-0.52,0h-0.46c-0.31,0-.61,0-0.9,0a6.8,6.8,0,0,1-3.07-.9,4.12,4.12,0,0,1-1.73-2.15,6,6,0,0,1-.23-2.8,6.73,6.73,0,0,1,.88-2.53,5.5,5.5,0,0,1,.35-0.51l0.09-.11,0.11-.13,0.19-.2a4.12,4.12,0,0,1,.91-0.65,4.85,4.85,0,0,1,2.05-.54h0.25a3.39,3.39,0,0,0,1.67,6.39,3.63,3.63,0,0,0,3.15-3.11,4,4,0,0,0-1.18-3.31A6.18,6.18,0,0,0,605,280a7.49,7.49,0,0,0-2.91.59,5.38,5.38,0,0,0-1.35.79l-0.32.28-0.13.12-0.15.15a7.39,7.39,0,0,0-.54.63,8.64,8.64,0,0,0-1.48,3.12,8,8,0,0,0,0,3.9,6.69,6.69,0,0,0,2.47,3.7,9.16,9.16,0,0,0,4.3,1.66c0.38,0.05.76,0.09,1.15,0.11h1.1l2.13,0c1.44,0,2.94,0,4.48,0,3.05,0,6.23-.07,9.55-0.12l0,0.12,0.17,0.79,0.21,0.78a15.85,15.85,0,0,0,7.52,9.64,16.81,16.81,0,0,0,5.48,2A14.84,14.84,0,0,0,647.29,306.24Zm-19.48-15.59a14.34,14.34,0,0,1,3.89-9.05,12.4,12.4,0,0,1,4.16-2.84,11.57,11.57,0,0,1,5-.84,12.16,12.16,0,0,1,2.59.44l0.64,0.19,0.29,0.1,0.35,0.13,0.19,0.07,0.13,0.06,0.33,0.15,0.67,0.29a25.07,25.07,0,0,1,5,3.08,26.4,26.4,0,0,1,2.24,2c0.73,0.71,1.42,1.47,2.11,2.26s1.6,1.9,2.4,2.9l-6,.21a11.09,11.09,0,0,0-1.83-3.14,10.84,10.84,0,0,0-7.87-3.81,7,7,0,0,0-4,1,3.73,3.73,0,0,0-1.09,1.08,3.56,3.56,0,0,0-.55,1.94,2.11,2.11,0,1,0,2.06-2.15l-0.27,0,0.28-.16a6.16,6.16,0,0,1,3.47-.43,9.58,9.58,0,0,1,4.41,1.82,8.92,8.92,0,0,1,3,3.94l-4.55.18-5.65.28q-2.79.13-5.48,0.29l-5.86.32C627.81,290.84,627.81,290.75,627.81,290.65Zm40.86,1.43c1.88-.15,3.78-0.28,5.7-0.4s3.84-.22,5.78-0.29,3.89-.1,5.84-0.06c1,0,2,.06,2.93.12s1.95,0.16,2.9.31a13.24,13.24,0,0,1,3.88,1.14c1.93,1.07-.2,2.8-0.53,3.11a11.62,11.62,0,0,1-2.3,1.63,24.71,24.71,0,0,1-11.19,2.77,21.47,21.47,0,0,1-5.66-.67,17.47,17.47,0,0,1-2.64-.92c-0.42-.18-0.84-0.39-1.24-0.61l-0.3-.17-0.29-.17-0.65-.39-0.57-.38c-0.19-.12-0.37-0.25-0.56-0.39l-0.56-.41-0.54-.44a24.67,24.67,0,0,1-2-1.89c-0.51-.52-1-1.07-1.46-1.64Zm-31.2,12.25a12.2,12.2,0,0,1-7.32-4.66,12.33,12.33,0,0,1-1.93-4.16l-0.14-.58v0c1.88-.06,3.81-0.12,5.77-0.22,3.61-.14,7.34-0.34,11.17-0.61,1.64-.11,3.31-0.24,5-0.39,0,0.09,0,.17,0,0.25a13.67,13.67,0,0,1-.37,3.54,9.43,9.43,0,0,1-1.5,3.27,9,9,0,0,1-2.75,2.48A11.13,11.13,0,0,1,637.48,304.33Z"/><path class="cls-4" d="M294.94,282.48a11.25,11.25,0,0,0-3.51-3.41,12,12,0,0,0-4.25-1.6,15,15,0,0,0-4.1-.12l-0.3,0q-0.34-3.62-.75-7.34a38.74,38.74,0,0,0,3.85-3.76,24.69,24.69,0,0,0,2-2.71l0.41-.74,0.43-.73c0.28-.48.61-1,0.87-1.49l0.36-.7,0.2-.39,0.18-.39c0.21-.53.41-1.07,0.58-1.62a21.45,21.45,0,0,0,.75-3.33,25.35,25.35,0,0,0,0-6.71,30,30,0,0,0-1.55-6.42c-0.74-2.06-2.11-6.95-5.07-8.46s-6.72-1.41-6.9,11c0,1,0,2.08,0,3.11s0,2.07.08,3.09q0.1,3.08.2,6.12l0.23,6q0.11,2.85.2,5.64l-0.25.2c-1.61,1.26-3.31,2.48-5,3.85a34.8,34.8,0,0,0-4.71,4.56,27.19,27.19,0,0,0-3.62,5.53l-0.35.74-0.17.37,0,0.09-0.05.12-0.07.17c0,0.13-.09.21-0.15,0.37l-0.16.43c-0.09.28-.19,0.55-0.27,0.83a16.18,16.18,0,0,0-.65,3.42,15.12,15.12,0,0,0,1,6.82,16,16,0,0,0,3.76,5.58,17.48,17.48,0,0,0,5.46,3.56,18.74,18.74,0,0,0,6.15,1.36l0.79,0c0.15,3.08.33,6,.45,8.84,0.06,1.44.15,2.84,0.2,4.22q0,1,.08,2l0,0.5c0,0.15,0,.29,0,0.44s0,0.58,0,.86a6.49,6.49,0,0,1-.86,2.92,3.93,3.93,0,0,1-2,1.64,5.7,5.7,0,0,1-2.66.22,6.42,6.42,0,0,1-2.41-.83,5.6,5.6,0,0,1-.49-0.33l-0.11-.08-0.13-.11-0.19-.18a3.92,3.92,0,0,1-.62-0.86,4.63,4.63,0,0,1-.51-2c0-.08,0-0.16,0-0.24a3.23,3.23,0,0,0,6.08-1.59,3.45,3.45,0,0,0-3-3,3.81,3.81,0,0,0-3.15,1.13,5.88,5.88,0,0,0-1.32,3.48,7.16,7.16,0,0,0,.56,2.77,5.1,5.1,0,0,0,.75,1.28l0.26,0.3,0.12,0.12,0.14,0.14a7.18,7.18,0,0,0,.6.51,8.23,8.23,0,0,0,3,1.41,7.56,7.56,0,0,0,3.71,0,6.38,6.38,0,0,0,3.52-2.35,8.73,8.73,0,0,0,1.58-4.1c0.05-.36.09-0.73,0.11-1.09v-0.55c0-.17,0-0.33,0-0.5,0-.67,0-1.34,0-2,0-1.37,0-2.8,0-4.26,0-2.91-.07-5.93-0.12-9.09l0.12,0,0.75-.16,0.74-.2a15.5,15.5,0,0,0,5.39-2.73,15.34,15.34,0,0,0,3.78-4.43,16,16,0,0,0,1.86-5.22A14.12,14.12,0,0,0,294.94,282.48ZM280.1,301a13.65,13.65,0,0,1-8.62-3.7,11.81,11.81,0,0,1-2.7-4,11,11,0,0,1-.8-4.77,11.52,11.52,0,0,1,.42-2.47c0.05-.2.12-0.41,0.19-0.61l0.1-.27c0-.08.09-0.23,0.13-0.33l0.07-.18,0.06-.13,0.14-.32,0.28-.64a23.78,23.78,0,0,1,2.93-4.74,24.83,24.83,0,0,1,1.9-2.13c0.67-.69,1.4-1.35,2.15-2s1.81-1.52,2.76-2.28q0.1,2.9.2,5.73a10.55,10.55,0,0,0-3,1.74,10.32,10.32,0,0,0-3.63,7.49,6.68,6.68,0,0,0,.92,3.8,3.57,3.57,0,0,0,1,1,3.39,3.39,0,0,0,1.85.53,2,2,0,1,0-2-2,2.08,2.08,0,0,0,0,.26c-0.05-.08-0.1-0.17-0.15-0.27a5.85,5.85,0,0,1-.41-3.3,9.1,9.1,0,0,1,1.73-4.19,8.48,8.48,0,0,1,3.75-2.82q0.08,2.19.17,4.33,0.13,2.73.26,5.38t0.28,5.22q0.15,2.85.3,5.58H280.1Zm1.36-38.89c-0.14-1.79-.27-3.6-0.38-5.42s-0.21-3.66-.28-5.5-0.09-3.7-.05-5.56c0-.93.06-1.86,0.12-2.79s0.15-1.85.29-2.76a12.57,12.57,0,0,1,1.08-3.7c1-1.84,2.67.19,3,.51a11,11,0,0,1,1.55,2.19,23.51,23.51,0,0,1,2.63,10.65,20.48,20.48,0,0,1-.64,5.38,16.67,16.67,0,0,1-.87,2.51c-0.17.4-.37,0.8-0.58,1.18l-0.16.29-0.16.27-0.37.62-0.36.54c-0.12.18-.24,0.36-0.37,0.54l-0.39.54-0.42.52a23.51,23.51,0,0,1-1.8,2c-0.5.48-1,.94-1.56,1.39Q281.59,263.8,281.46,262.13Zm11.66,29.69a11.28,11.28,0,0,1-8.39,8.8l-0.55.13h0c-0.05-1.79-.12-3.62-0.21-5.49-0.14-3.44-.32-7-0.58-10.63q-0.16-2.35-.37-4.75h0.24a13.11,13.11,0,0,1,3.37.35,9,9,0,0,1,3.11,1.43,8.61,8.61,0,0,1,2.36,2.62A10.59,10.59,0,0,1,293.12,291.82Z"/><path class="cls-9" d="M238.24,498.61a14.94,14.94,0,0,0-.12-6.49,15.9,15.9,0,0,0-2.51-5.48,20,20,0,0,0-3.75-4l-0.32-.25q3.06-3.73,6.15-7.62a51.12,51.12,0,0,0,7.15.06,32.46,32.46,0,0,0,4.42-.69l1.08-.32,1.09-.28c0.71-.19,1.5-0.36,2.22-0.59l1-.32,0.55-.19,0.53-.21c0.7-.3,1.39-0.63,2.06-1a28.18,28.18,0,0,0,3.82-2.45,33.53,33.53,0,0,0,6.29-6.3,39.9,39.9,0,0,0,4.54-7.5c1.23-2.64,4.51-8.53,3.13-12.72s-5-7.62-16.79,3.92c-1,1-1.93,2-2.87,3s-1.89,2-2.82,3l-5.53,6-5.42,5.9-5.09,5.51-0.43,0c-2.7-.33-5.44-0.75-8.29-1a46,46,0,0,0-8.7-.11,36.12,36.12,0,0,0-8.58,1.83l-1,.38-0.51.19-0.13,0-0.17.07L209,471l-0.48.21-0.56.25c-0.35.17-.69,0.34-1,0.52a21.42,21.42,0,0,0-3.81,2.62,20.06,20.06,0,0,0-5.4,7.4,21.24,21.24,0,0,0-1.68,8.78,23.21,23.21,0,0,0,1.82,8.46,24.88,24.88,0,0,0,4.53,7q0.35,0.39.72,0.76c-2.73,3-5.34,6-7.84,8.75-1.29,1.41-2.51,2.81-3.76,4.16l-1.83,2-0.45.49-0.4.43c-0.27.27-.55,0.54-0.83,0.78a8.6,8.6,0,0,1-3.54,2,5.21,5.21,0,0,1-3.47-.37,7.55,7.55,0,0,1-2.72-2.28,8.52,8.52,0,0,1-1.49-3c-0.06-.26-0.12-0.52-0.15-0.77l0-.18,0-.22v-0.35a5.25,5.25,0,0,1,.22-1.39,6.16,6.16,0,0,1,1.35-2.32l0.22-.22a4.29,4.29,0,0,0,7.22,4.18c1.49-1.57,1.06-4.44,0-5.6a5.06,5.06,0,0,0-4-1.89,7.81,7.81,0,0,0-4.5,2.05,9.42,9.42,0,0,0-2.06,3.14,6.81,6.81,0,0,0-.49,1.91c0,0.18,0,.35,0,0.54v0.49a9.79,9.79,0,0,0,.08,1,10.94,10.94,0,0,0,1.48,4.11,10,10,0,0,0,3.48,3.49,8.45,8.45,0,0,0,5.52,1.08,11.59,11.59,0,0,0,5.32-2.38c0.39-.29.76-0.6,1.12-0.93l0.27-.25,0.15-.13,0.12-.12,0.48-.46,1.94-1.87c1.32-1.25,2.65-2.61,4-4,2.73-2.73,5.48-5.65,8.39-8.68l0.13,0.09,0.85,0.55,0.88,0.51a20.63,20.63,0,0,0,7.63,2.47,20.4,20.4,0,0,0,7.71-.64,21.15,21.15,0,0,0,6.63-3.18A18.75,18.75,0,0,0,238.24,498.61Zm-31.32,3.6a18.12,18.12,0,0,1-4.66-11.55,15.69,15.69,0,0,1,1.16-6.27,14.65,14.65,0,0,1,3.71-5.24,15.4,15.4,0,0,1,2.7-1.94c0.24-.14.5-0.27,0.74-0.4l0.35-.17,0.43-.2,0.23-.1,0.17-.07,0.43-.17,0.86-.34a31.63,31.63,0,0,1,7.2-1.73,32.84,32.84,0,0,1,3.78-.24c1.28,0,2.58,0,3.9.12,1.54,0.1,3.13.26,4.73,0.42l-5.17,5.59a14,14,0,0,0-4.44-1.15,13.7,13.7,0,0,0-10.43,3.67,8.87,8.87,0,0,0-2.69,4.44,4.74,4.74,0,0,0,0,1.94,4.51,4.51,0,0,0,1.25,2.23,2.66,2.66,0,1,0-.1-3.76,2.64,2.64,0,0,0-.22.26c0-.13.06-0.26,0.11-0.39a7.77,7.77,0,0,1,2.7-3.49,12.09,12.09,0,0,1,5.55-2.34,11.23,11.23,0,0,1,6.17.86l-3.89,4.24-4.78,5.32q-2.36,2.62-4.62,5.18l-4.93,5.54Zm37.65-35.39q2.31-2.73,4.71-5.47t4.88-5.44c1.67-1.79,3.37-3.57,5.15-5.29,0.88-.86,1.79-1.7,2.72-2.52s1.87-1.61,2.86-2.33a16.71,16.71,0,0,1,4.48-2.48c2.67-.78,2.34,2.68,2.32,3.25a14.67,14.67,0,0,1-.58,3.51,31.24,31.24,0,0,1-7.48,12.5A27.19,27.19,0,0,1,258,467a22.29,22.29,0,0,1-3.17,1.55c-0.54.22-1.09,0.4-1.65,0.57l-0.42.12-0.41.11-0.92.24-0.85.18c-0.28.06-.56,0.11-0.85,0.16l-0.87.14-0.88.1a31.65,31.65,0,0,1-3.53.15c-0.92,0-1.84-.07-2.77-0.15Zm-16.77,38.9a15.42,15.42,0,0,1-10.69,2.42,15.57,15.57,0,0,1-5.45-2l-0.64-.39,0,0c1.62-1.74,3.28-3.53,4.94-5.37,3.08-3.37,6.23-6.89,9.39-10.57,1.37-1.57,2.73-3.19,4.1-4.82l0.24,0.22a17.38,17.38,0,0,1,2.84,3.48,12,12,0,0,1,1.6,4.26,11.43,11.43,0,0,1-.23,4.68A14.07,14.07,0,0,1,227.79,505.72Z"/><path class="cls-9" d="M426,623.24a13.57,13.57,0,0,0-4-4.37,14.42,14.42,0,0,0-5-2.24,18.15,18.15,0,0,0-4.94-.45l-0.37,0q-0.15-4.39-.37-8.9a47,47,0,0,0,4.92-4.26,29.22,29.22,0,0,0,2.61-3.13l0.55-.87,0.58-.85c0.38-.55.81-1.15,1.16-1.73l0.49-.82,0.27-.46,0.24-.46c0.3-.63.58-1.26,0.82-1.91a25.58,25.58,0,0,0,1.14-4,30.46,30.46,0,0,0,.52-8.09,36.24,36.24,0,0,0-1.4-7.85c-0.75-2.54-2-8.54-5.5-10.58s-8-2.19-9.12,12.77c-0.09,1.26-.13,2.51-0.17,3.76s-0.09,2.49-.13,3.74q-0.1,3.72-.2,7.39t-0.16,7.29q-0.08,3.44-.17,6.82l-0.32.22c-2,1.4-4.17,2.75-6.28,4.28a42.08,42.08,0,0,0-6,5.15,32.84,32.84,0,0,0-4.76,6.41l-0.47.87-0.24.44-0.06.11-0.08.15-0.1.21c-0.07.15-.13,0.25-0.21,0.43l-0.23.51c-0.13.33-.27,0.64-0.39,1a19.49,19.49,0,0,0-1,4.07,18.26,18.26,0,0,0,.75,8.3,19.32,19.32,0,0,0,4.13,7,21.12,21.12,0,0,0,6.33,4.69,22.69,22.69,0,0,0,7.31,2.08L407,650.1c0,3.72,0,7.31-.1,10.69,0,1.74,0,3.43-.07,5.1,0,0.83,0,1.65-.05,2.46,0,0.2,0,.4,0,0.6s0,0.35,0,.53c0,0.35,0,.7-0.1,1A7.87,7.87,0,0,1,405.4,674a4.74,4.74,0,0,1-2.59,1.83,6.91,6.91,0,0,1-3.23.07,7.74,7.74,0,0,1-2.84-1.18c-0.2-.14-0.59-0.09-0.76-0.24l-0.32.09-0.14-.14,0-.43a5,5,0,0,1-.58-1.19,5.77,5.77,0,0,1-.42-2.44c0-.1,0-0.21,0-0.31a3.92,3.92,0,0,0,7.47-1.49,4.18,4.18,0,0,0-3.35-3.84,4.61,4.61,0,0,0-3.88,1.13,7.1,7.1,0,0,0-1.84,4.1,8.59,8.59,0,0,0,.48,3.38,6.23,6.23,0,0,0,.82,1.6l0.3,0.39,0.13,0.16,0.16,0.18a9,9,0,0,0,.68.66,9.94,9.94,0,0,0,3.48,1.92,9.17,9.17,0,0,0,4.48.29,7.87,7.87,0,0,0,2.37-.88,7.7,7.7,0,0,0,2-1.7,10.5,10.5,0,0,0,2.2-4.83c0.09-.43.16-0.87,0.21-1.31l0-.33,0-.18v-0.15c0-.2,0-0.4.05-0.6q0.1-1.21.2-2.45c0.15-1.65.24-3.37,0.35-5.14,0.23-3.51.35-7.15,0.52-11l0.15,0,0.91-.14,0.91-.18a18.77,18.77,0,0,0,6.7-2.9,18.55,18.55,0,0,0,4.88-5.07,19.25,19.25,0,0,0,2.62-6.16A17.06,17.06,0,0,0,426,623.24Zm-19.25,21.28a16.48,16.48,0,0,1-10.12-5.09,14.28,14.28,0,0,1-3-5,13.29,13.29,0,0,1-.62-5.81,14.13,14.13,0,0,1,.68-2.95c0.08-.24.18-0.48,0.27-0.72l0.14-.33c0-.1.12-0.26,0.18-0.4l0.1-.21,0.08-.15,0.19-.37,0.38-.75a28.8,28.8,0,0,1,3.88-5.5,30.24,30.24,0,0,1,2.44-2.43c0.86-.78,1.78-1.53,2.74-2.26,1.11-.86,2.29-1.7,3.49-2.55q-0.1,3.5-.18,6.93a12.76,12.76,0,0,0-3.73,1.88,12.47,12.47,0,0,0-4.92,8.77,8.08,8.08,0,0,0,.83,4.65,4.34,4.34,0,0,0,1.16,1.33,4.1,4.1,0,0,0,2.2.77,2.42,2.42,0,1,0-2.33-2.52,2.18,2.18,0,0,0,0,.31c-0.06-.1-0.11-0.22-0.16-0.33a7.05,7.05,0,0,1-.25-4,11,11,0,0,1,2.39-4.93,10.22,10.22,0,0,1,4.73-3.12c0,1.76-.08,3.51-0.11,5.24,0,2.2,0,4.37-.08,6.5s0,4.25,0,6.31c0,2.3,0,4.54,0,6.75Zm4.48-46.81q-0.06-3.26-.06-6.57t0.07-6.65c0.06-2.23.16-4.47,0.34-6.71,0.08-1.12.21-2.24,0.35-3.35s0.31-2.22.56-3.31a15.19,15.19,0,0,1,1.57-4.38c1.36-2.14,3.2.43,3.54,0.82a13.36,13.36,0,0,1,1.71,2.75,28.4,28.4,0,0,1,2.4,13,24.78,24.78,0,0,1-1.16,6.45,20.4,20.4,0,0,1-1.24,3c-0.24.48-.51,0.93-0.79,1.38l-0.21.33-0.21.32-0.49.72-0.47.63c-0.16.2-.31,0.41-0.49,0.62l-0.51.62-0.54.6a28.51,28.51,0,0,1-2.32,2.22c-0.63.54-1.3,1.06-2,1.56C411.22,600.42,411.21,599.07,411.18,597.72Zm11.9,36.66a14,14,0,0,1-5.85,8.08,14.17,14.17,0,0,1-4.91,1.93l-0.67.12h0c0.06-2.17.12-4.38,0.15-6.64,0.09-4.15.12-8.45,0.07-12.87,0-1.9,0-3.82-.1-5.76H412a15.71,15.71,0,0,1,4,.67,10.81,10.81,0,0,1,3.65,1.95,10.4,10.4,0,0,1,2.66,3.33A12.8,12.8,0,0,1,423.08,634.38Z"/><path class="cls-5" d="M307.73,589.39a1.88,1.88,0,1,0-3.75.1l1.12,43.64c-3.41-2.78-9.41-2.63-13.85.69-5.32,4-6.91,11-3.52,15.69s10.43,5.27,15.75,1.3a12.74,12.74,0,0,0,5.35-10.51,2.27,2.27,0,0,0,.18-0.73Z"/><path class="cls-5" d="M527.51,395.71a1.32,1.32,0,1,0-1.62,2.07l24.17,18.86c-3,.61-5.63,3.93-5.81,7.82-0.22,4.66,2.89,8.65,6.94,8.91s7.51-3.31,7.73-8a9,9,0,0,0-3.32-7.59,1.56,1.56,0,0,0-.31-0.42Z"/><path class="cls-5" d="M508.58,288.9a1.32,1.32,0,1,0-1.15-2.37l-27.58,13.4c0.79-3-1.05-6.78-4.46-8.66-4.09-2.25-9-1.22-11.05,2.31s-0.34,8.2,3.74,10.45a9,9,0,0,0,8.28.36,1.6,1.6,0,0,0,.52-0.09Z"/><path class="cls-8" d="M168.79,234.34a1.93,1.93,0,1,0,3.77.8L181.7,192c2.75,3.54,8.79,4.83,14,2.63,6.25-2.63,9.49-9.15,7.2-14.57s-9.18-7.67-15.43-5a12.8,12.8,0,0,0-7.82,9,2.24,2.24,0,0,0-.36.67Z"/><path class="cls-4" d="M410.24,468.13c-5.77-.7-8.53,4.29-9.13,6-0.6-1.75-3.36-6.74-9.13-6-6.09.74-8.16,8.94-4.31,15s13.44,12.45,13.44,12.45,9.59-6.41,13.44-12.45S416.32,468.87,410.24,468.13Z"/><path class="cls-5" d="M119.86,397.54c-4.41-.54-6.53,3.28-7,4.62-0.46-1.34-2.57-5.16-7-4.62-4.66.56-6.25,6.84-3.3,11.47s10.29,9.53,10.29,9.53,7.34-4.9,10.29-9.53S124.51,398.1,119.86,397.54Z"/><path class="cls-5" d="M681.86,318.54c-4.41-.54-6.53,3.28-7,4.62-0.46-1.34-2.57-5.16-7-4.62-4.66.56-6.25,6.84-3.3,11.47s10.29,9.53,10.29,9.53,7.34-4.9,10.29-9.53S686.51,319.1,681.86,318.54Z"/><path class="cls-5" d="M599,587.67c-5.33-.65-7.88,4-8.44,5.58-0.55-1.62-3.11-6.23-8.43-5.58-5.62.68-7.54,8.26-4,13.84S590.57,613,590.57,613s8.86-5.92,12.42-11.5S604.62,588.35,599,587.67Z"/><path class="cls-5" d="M490.3,93.49c-5.3-.64-7.83,3.94-8.38,5.55-0.55-1.61-3.09-6.19-8.38-5.55-5.59.68-7.49,8.21-4,13.76s12.34,11.43,12.34,11.43,8.8-5.88,12.34-11.43S495.89,94.17,490.3,93.49Z"/><path class="cls-4" d="M642.44,203.13c-3.47-.42-5.13,2.58-5.49,3.63-0.36-1.05-2-4.05-5.49-3.63-3.66.44-4.91,5.38-2.59,9s8.09,7.49,8.09,7.49,5.77-3.86,8.09-7.49S646.1,203.57,642.44,203.13Z"/><path class="cls-8" d="M413.44,219.13c-3.47-.42-5.13,2.58-5.49,3.63-0.36-1.05-2-4.05-5.49-3.63-3.66.44-4.91,5.38-2.59,9s8.09,7.49,8.09,7.49,5.77-3.86,8.09-7.49S417.1,219.57,413.44,219.13Z"/><path class="cls-4" d="M621.44,547.13c-3.47-.42-5.13,2.58-5.49,3.63-0.36-1.05-2-4.05-5.49-3.63-3.66.44-4.91,5.38-2.59,9s8.09,7.49,8.09,7.49,5.77-3.86,8.09-7.49S625.1,547.57,621.44,547.13Z"/><path class="cls-8" d="M324.38,427.07c-3.47-.42-5.13,2.58-5.49,3.63-0.36-1.05-2-4.05-5.49-3.63-3.66.44-4.91,5.38-2.59,9s8.09,7.49,8.09,7.49,5.77-3.85,8.09-7.49S328,427.51,324.38,427.07Z"/><path class="cls-8" d="M579.38,449.07c-3.47-.42-5.13,2.58-5.49,3.63-0.36-1.05-2-4.05-5.49-3.63-3.66.44-4.91,5.38-2.59,9s8.09,7.49,8.09,7.49,5.77-3.85,8.09-7.49S583,449.51,579.38,449.07Z"/><path class="cls-4" d="M410.24,255c-5.77-.7-8.53,4.29-9.13,6-0.6-1.75-3.36-6.74-9.13-6-6.09.74-8.16,8.95-4.31,15s13.44,12.45,13.44,12.45S410.7,276,414.55,270,416.32,255.75,410.24,255Z"/><path class="cls-4" d="M269.67,617c-4.46-.54-6.59,3.31-7.06,4.67-0.46-1.35-2.6-5.21-7.06-4.67-4.7.57-6.31,6.91-3.33,11.58s10.39,9.62,10.39,9.62,7.41-5,10.39-9.62S274.37,617.57,269.67,617Z"/><path class="cls-9" d="M310.62,105.09c-4.86-.59-7.19,3.61-7.69,5.09-0.5-1.48-2.83-5.68-7.69-5.09-5.13.62-6.88,7.54-3.63,12.63s11.33,10.49,11.33,10.49,8.08-5.4,11.33-10.49S315.75,105.71,310.62,105.09Z"/><polygon class="cls-4" points="332 659 332 665 347 665 347 659 340.09 659 332 659"/><path class="cls-5" d="M351.48,596c2.94-5,7.7-13.74,6.28-22.16C355.44,560,347,558.21,340.09,558.21s-15.35,1.82-17.67,15.61C321,582.24,325.76,591,328.7,596h22.78Z"/><polygon class="cls-9" points="340.09 596 328.7 596 328.41 596 332.8 659 333.51 659 340.09 659 346.67 659 347.38 659 351.78 596 351.48 596 340.09 596"/><polygon class="cls-8" points="459.6 226.47 457.67 231.53 469.79 236.16 471.72 231.1 465.71 228.81 459.6 226.47"/><path class="cls-10" d="M495.87,179c4.43-4.1,11.19-9.6,12.72-17.25,2.51-12.51-4-17-9.9-19.27s-13.79-3.14-20.26,7.85c-4,6.72-2.56,15.25-2,21.25l9.71,3.71Z"/><polygon class="cls-4" points="486.17 175.24 476.46 171.54 476.21 171.44 459.49 226.43 460.1 226.66 465.71 228.81 471.31 230.95 471.92 231.18 496.12 179.05 495.87 178.95 486.17 175.24"/><path class="cls-8" d="M309.52,257.89c5.39,7.25.87,15,.87,15,6.1-1,11.83,4.51,13.39,14,1.9,11.6-7.77,15-7.77,15,4.35,2.9-7,21.76,1.21,33.36s18.86,9.67,25.62,9.67,17.41,1.93,25.62-9.67-3.14-30.46,1.21-33.36c0,0-9.67-3.38-7.77-15,1.56-9.51,7.29-15,13.39-14,0,0-4.52-7.74.87-15s7.17-25.62.47-32.88-18.32-12.84-33.79-12.84S315.75,217.76,309,225,304.13,250.64,309.52,257.89Z"/><path class="cls-2" d="M346.22,287.81c0,0.1,0,.21,0,0.32a3.92,3.92,0,0,0,1,2.23,4.18,4.18,0,0,0,1.28,1,4.7,4.7,0,0,0,1.72.42,5.09,5.09,0,0,0,.93,0l0.24,0,0.32-.08,0.41-.11a1.91,1.91,0,0,0,.52-0.24c0.19-.11.38-0.22,0.56-0.35a8.25,8.25,0,0,0,.78-0.8,10.11,10.11,0,0,0,1.75-3.87,24.59,24.59,0,0,0,.66-4.22c0.1-1.43.14-2.88,0.13-4.32s-0.17-2.89-.19-4.19a26.63,26.63,0,0,1,.14-3.86,6.93,6.93,0,0,1,1-3,2.08,2.08,0,0,1,.93-0.76,3.45,3.45,0,0,1,1.29-.21,4.84,4.84,0,0,1,2.4.71l0.19,0.14a2.37,2.37,0,0,0-.31,0c-3,0-2.87,4.71.16,4.71a2.3,2.3,0,0,0,1.81-3.66,4.26,4.26,0,0,0-1.19-2,5.56,5.56,0,0,0-2.88-1.46,5,5,0,0,0-2,0,3.88,3.88,0,0,0-2,1.18,8,8,0,0,0-1.8,4,21.72,21.72,0,0,0-.4,4.28c0,1.47.09,2.86,0.1,4.23s0,2.76,0,4.1a30.84,30.84,0,0,1-.38,3.87,9.73,9.73,0,0,1-1,3.18c-0.12.21-.28,0.35-0.41,0.54a1,1,0,0,0-.17.14,0.46,0.46,0,0,1-.23.18l-0.39.17-0.1,0,0,0-0.11,0a3.43,3.43,0,0,1-.68.12,3.07,3.07,0,0,1-3-1.28,2.27,2.27,0,0,0,1,.22c2.87,0,2.7-4.44-.15-4.44A2.13,2.13,0,0,0,346.22,287.81Zm0.38-1.65a3.53,3.53,0,0,0-.2.47,3.29,3.29,0,0,0-.18,1,3.29,3.29,0,0,1,.18-1A3.53,3.53,0,0,1,346.59,286.15Z"/><path class="cls-5" d="M336.57,254.51s1.43,5.32,6.27,5.32,6.27-5.32,6.27-5.32-5.26-14.5-4-22.24,0.6-20.09-2.3-20.09-3.59,12.36-2.3,20.09S336.57,254.51,336.57,254.51Z"/><path class="cls-2" d="M337.6,284.68c-2.86,0-3,4.44-.15,4.44a2.27,2.27,0,0,0,1-.22,3.16,3.16,0,0,1-.69.71,3.2,3.2,0,0,1-2.28.57,3.42,3.42,0,0,1-.68-0.12l-0.11,0,0,0-0.1,0-0.39-.17a0.45,0.45,0,0,1-.23-0.18,1.09,1.09,0,0,0-.17-0.14c-0.13-.19-0.29-0.33-0.41-0.54a9.74,9.74,0,0,1-1-3.18,30.86,30.86,0,0,1-.38-3.87c-0.07-1.34-.07-2.72,0-4.1s0.11-2.76.1-4.23a21.64,21.64,0,0,0-.4-4.28,8,8,0,0,0-1.8-4,3.88,3.88,0,0,0-2-1.18,5,5,0,0,0-2,0,5.56,5.56,0,0,0-2.88,1.46,4.26,4.26,0,0,0-1.19,2,2.3,2.3,0,0,0,1.81,3.66c3,0,3.21-4.71.16-4.71a2.36,2.36,0,0,0-.31,0l0.19-.14a4.85,4.85,0,0,1,2.4-.71,3.44,3.44,0,0,1,1.29.21,2.08,2.08,0,0,1,.93.76,6.91,6.91,0,0,1,1,3,26.62,26.62,0,0,1,.14,3.86c0,1.31-.15,2.74-0.19,4.19s0,2.89.13,4.32a24.49,24.49,0,0,0,.66,4.22,10.11,10.11,0,0,0,1.75,3.87,8.26,8.26,0,0,0,.78.8c0.18,0.12.37,0.24,0.56,0.35a1.91,1.91,0,0,0,.52.24l0.41,0.11,0.32,0.08,0.24,0a5.09,5.09,0,0,0,.93,0,4.71,4.71,0,0,0,1.72-.42,4.19,4.19,0,0,0,1.27-1,3.92,3.92,0,0,0,1-2.23c0-.11,0-0.21,0-0.32A2.13,2.13,0,0,0,337.6,284.68Zm1.69,1.95a3.29,3.29,0,0,1,.18,1,3.29,3.29,0,0,0-.18-1,3.56,3.56,0,0,0-.2-0.47A3.56,3.56,0,0,1,339.29,286.63Z"/><path class="cls-4" d="M342.84,417.2c3.38,0,11.46-7.33,3.79-13.62L349.12,301H336.55L339,403.58C331.38,409.86,339.45,417.2,342.84,417.2Z"/><path class="cls-5" d="M334,397.12c1,0,1.82-1.12,2.3-1.12h13.15c0.48,0,1.33,1.12,2.3,1.12a2.8,2.8,0,0,0,2.73-2.81,2.67,2.67,0,0,0-2.73-2.66,2.34,2.34,0,0,0-2.3,1.35H336.26a2.38,2.38,0,0,0-2.3-1.39A2.75,2.75,0,0,0,334,397.12Z"/><path class="cls-5" d="M334,389.73a2.73,2.73,0,0,0,2.3-1.73h13.15a2.73,2.73,0,0,0,2.3,1.73,2.54,2.54,0,0,0,2.73-2.5,3.09,3.09,0,0,0-2.73-3.12c-1,0-1.82-.12-2.3.88H336.26c-0.48-1-1.33-.77-2.3-0.77A2.75,2.75,0,0,0,334,389.73Z"/><rect class="cls-4" x="336" y="273" width="13" height="1"/><path class="cls-9" d="M439.87,425.83c6.26-.34,9,5.23,9,5.23,1.78-3.9,7.15-5.12,13.25-2.38,7.45,3.34,5.71,10.24,5.71,10.24,3.35-1.41,9.91,12.39,19.78,12.07s12.82-7.21,15.41-11.13,7.79-9.34,4.21-18.54-18.84-9.84-18.86-13.47c0,0-5.66,4.3-11.65-1.24-4.91-4.54-5.89-10-3-13.12,0,0-6.21-.35-8.35-6.24s-12.09-14-18.86-12.86-14.45,5.69-20.38,14.65-7.14,17.83-5.5,24.49S433.61,426.17,439.87,425.83Z"/><path class="cls-2" d="M471.25,416l0.19,0.11a2.73,2.73,0,0,0,1.67.29,2.92,2.92,0,0,0,1-.37,3.26,3.26,0,0,0,.9-0.84,3.5,3.5,0,0,0,.35-0.54l0.08-.14,0.08-.22,0.1-.28a1.3,1.3,0,0,0,.06-0.39c0-.15,0-0.3,0-0.45a5.85,5.85,0,0,0-.16-0.76,7,7,0,0,0-1.57-2.5,17,17,0,0,0-2.19-2c-0.79-.61-1.62-1.18-2.46-1.73s-1.74-1-2.5-1.5a18.58,18.58,0,0,1-2.18-1.56,4.8,4.8,0,0,1-1.39-1.73,1.45,1.45,0,0,1-.08-0.83,2.39,2.39,0,0,1,.37-0.83,3.36,3.36,0,0,1,1.33-1.12l0.16-.06a1.75,1.75,0,0,0-.14.17c-1.17,1.76,1.63,3.47,2.79,1.71a1.6,1.6,0,0,0-1.43-2.44,3,3,0,0,0-1.6-.07,3.85,3.85,0,0,0-1.94,1.11,3.5,3.5,0,0,0-.75,1.16,2.68,2.68,0,0,0-.07,1.58,5.55,5.55,0,0,0,1.61,2.56,15.1,15.1,0,0,0,2.32,1.87c0.85,0.57,1.69,1,2.49,1.56s1.61,1,2.37,1.59a21.44,21.44,0,0,1,2.1,1.7,6.73,6.73,0,0,1,1.44,1.82c0.07,0.15.1,0.3,0.16,0.44a0.69,0.69,0,0,0,0,.15,0.31,0.31,0,0,1,0,.2l-0.05.29v0.1l0,0.08a2.36,2.36,0,0,1-.19.44,2.13,2.13,0,0,1-1.88,1.23,1.58,1.58,0,0,0,.51-0.5c1.1-1.66-1.54-3.27-2.63-1.61A1.48,1.48,0,0,0,471.25,416Zm-0.81-.85a2.74,2.74,0,0,0,.2.3,2.26,2.26,0,0,0,.53.5,2.26,2.26,0,0,1-.53-0.5A2.74,2.74,0,0,1,470.44,415.19Z"/><path class="cls-7" d="M448.27,408.87s3.63,1.21,5.48-1.59-0.68-5.67-.68-5.67-10.42-2.51-14.4-6.21-11.41-8-12.52-6.36,5.78,6.81,10.76,9S448.27,408.87,448.27,408.87Z"/><path class="cls-2" d="M466.14,419.83c-1.09,1.66,1.41,3.45,2.51,1.79a1.55,1.55,0,0,0,.25-0.67,2.21,2.21,0,0,1,.15.67,2.23,2.23,0,0,1-.54,1.54,2.5,2.5,0,0,1-.33.35l-0.06.06,0,0-0.06,0-0.25.16a0.32,0.32,0,0,1-.19.07l-0.15,0c-0.16,0-.3,0-0.47,0a6.76,6.76,0,0,1-2.24-.61,21.41,21.41,0,0,1-2.39-1.26c-0.8-.48-1.6-1-2.38-1.56s-1.56-1.12-2.41-1.68a15.16,15.16,0,0,0-2.63-1.4,5.57,5.57,0,0,0-3-.48,2.71,2.71,0,0,0-1.43.68,3.45,3.45,0,0,0-.77,1.14,3.84,3.84,0,0,0-.26,2.22,2.94,2.94,0,0,0,.69,1.45,1.6,1.6,0,0,0,2.81.36c1.16-1.76-1.5-3.66-2.66-1.9a1.78,1.78,0,0,0-.1.19c0-.06,0-0.11,0-0.17a3.33,3.33,0,0,1,.5-1.66,2.35,2.35,0,0,1,.62-0.66,1.44,1.44,0,0,1,.79-0.25,4.84,4.84,0,0,1,2.14.6,18.23,18.23,0,0,1,2.29,1.4c0.75,0.51,1.53,1.14,2.36,1.71s1.68,1.09,2.55,1.58a17.14,17.14,0,0,0,2.7,1.23,7,7,0,0,0,2.91.47,6,6,0,0,0,.76-0.15l0.41-.19a1.42,1.42,0,0,0,.34-0.21l0.22-.2,0.17-.16,0.1-.13a3.56,3.56,0,0,0,.36-0.54,3.25,3.25,0,0,0,.42-1.16,2.92,2.92,0,0,0-.07-1.11,2.71,2.71,0,0,0-.92-1.42l-0.18-.13A1.48,1.48,0,0,0,466.14,419.83Zm1.78-.23a2.26,2.26,0,0,1,.66.29,2.26,2.26,0,0,0-.66-0.29,2.42,2.42,0,0,0-.35-0.06A2.42,2.42,0,0,1,467.91,419.6Z"/><path class="cls-6" d="M544.88,467.54c1.3-2,.19-9.42-6.39-7.38l-58.4-40.69-2.41,3.64-2.41,3.64,60.31,37.81C536.29,471.4,543.59,469.5,544.88,467.54Z"/><path class="cls-9" d="M530,465.06c0.37-.56.15-1.41,0.34-1.69l5-7.62c0.19-.28,1.05-0.41,1.43-1a2,2,0,0,0-.63-2.69,1.85,1.85,0,0,0-2.58.57,1.55,1.55,0,0,0-.1,1.85l-5,7.62a1.6,1.6,0,0,0-1.72.78A2,2,0,0,0,530,465.06Z"/><path class="cls-9" d="M525.81,462.31a1.55,1.55,0,0,0,.1-1.85l5-7.62a1.55,1.55,0,0,0,1.66-.82,1.87,1.87,0,0,0-.51-2.61,2,2,0,0,0-2.75.45,1.4,1.4,0,0,0-.27,1.74l-5,7.62a1.39,1.39,0,0,0-1.48.93A2,2,0,0,0,525.81,462.31Z"/><rect class="cls-7" x="457.28" y="412.05" width="9.01" height="0.75" transform="matrix(0.55, -0.83, 0.83, 0.55, -136.93, 570.15)"/><path class="cls-5" d="M437.54,152.53l0.31,45.92c0,5.21-4,5.61-9.21,5.64s-9.25-.3-9.29-5.52L419,152.66c0-5.39-.68-9.13-0.45-11.66l19.09-.12C438.29,143.66,437.51,147.63,437.54,152.53Z"/><path class="cls-5" d="M434.42,98.23c3.79-.34,4.53,2.16,4.69,4.36l-8,0C431,100.85,431.55,98.49,434.42,98.23Z"/><path class="cls-9" d="M444.22,138.4L444,106.09a3.55,3.55,0,0,0,0-.45c12,1.79,16.93,6.23,17,16.79s-4.85,15.09-16.92,17A3.48,3.48,0,0,0,444.22,138.4Z"/><path class="cls-9" d="M413.47,104.52h1.66a3.48,3.48,0,0,0-.48,1.76l0.2,32.31a3.49,3.49,0,0,0,.93,2.34l-2.09,0c-29.49.18-60.56,18.65-69.17,24.16L344,81.2C352.69,86.6,384,104.69,413.47,104.52Z"/><path class="cls-7" d="M341.26,77.94c1.79,0,2.74,1.43,3.74,3.21V81.2l0,83.88-0.24.64a3.34,3.34,0,0,1-3.33,3.25,3.28,3.28,0,0,1-3.31-3.21l-0.3-84.58A3.42,3.42,0,0,1,341.26,77.94Z"/><path class="cls-7" d="M415.78,140.38c0.65,0.71,1.58.62,2.62,0.62h0.19l19.09,0.42,3,0.52a3.59,3.59,0,0,0,3.5-3.55L444,106.09a3.55,3.55,0,0,0,0-.45,3.51,3.51,0,0,0-3.5-3.06h-1.37l-8,0-12.92.08a3.56,3.56,0,0,0-3.5,3.54l0.2,32.31A2.3,2.3,0,0,0,415.78,140.38Zm13.53-24.2A6.38,6.38,0,1,1,423,122.6,6.38,6.38,0,0,1,429.31,116.18Z"/><path class="cls-2" d="M423,122.6a6.38,6.38,0,1,0,6.34-6.42A6.38,6.38,0,0,0,423,122.6Zm8.24,0.7c1.71,0,1.94,2.65.22,2.66S429.49,123.31,431.22,123.3Zm-0.78-4.13,0.25,0a1.09,1.09,0,0,1,.28,0c1.43,0.27,1.53,2.61-.08,2.62S429,119.41,430.44,119.17ZM426.52,121c1.66,0,1.88,2.57.21,2.58S424.85,121,426.52,121Z"/><path class="cls-6" d="M430.44,119.17l0.25,0a1.09,1.09,0,0,1,.28,0c1.43,0.27,1.53,2.61-.08,2.62S429,119.41,430.44,119.17Z"/><path class="cls-6" d="M431.22,123.3c1.71,0,1.94,2.65.22,2.66S429.49,123.31,431.22,123.3Z"/><path class="cls-6" d="M426.52,121c1.66,0,1.88,2.57.21,2.58S424.85,121,426.52,121Z"/><path class="cls-4" d="M592.29,315.54l-29.1-24.88c-3.3-2.83-5.72-.47-8.55,2.83s-4.78,6.06-1.47,8.88l29.1,24.89c3.42,2.92,5.46,5.34,7.19,6.56l10.34-12.1C598.34,319.84,595.4,318.2,592.29,315.54Z"/><path class="cls-4" d="M625.22,346.73c2.25-2.23,1.06-4-.26-5.33l-4.35,5.09C621.74,347.47,623.51,348.41,625.22,346.73Z"/><path class="cls-7" d="M604.89,318.89l20.48,17.49a3.65,3.65,0,0,1,.26.27c5.31-8.61,5.13-14.14-1.57-19.86s-12.22-5-19.95,1.64A2.89,2.89,0,0,1,604.89,318.89Z"/><path class="cls-7" d="M610,356.7l0.9-1.06a2.89,2.89,0,0,1-1.38-.64L589,337.51a2.92,2.92,0,0,1-1-1.85L586.87,337c-16,18.7-44.44,28.57-52.58,31.1l53.19,45.42C588.7,405.07,594,375.4,610,356.7Z"/><path class="cls-9" d="M588,417.15c1-1.13.4-2.32-.15-4l0,0-53.33-45.25-0.48-.26a2.74,2.74,0,0,0-3.55,4.16l53.69,45.72A2.78,2.78,0,0,0,588,417.15Z"/><path class="cls-9" d="M589,337.51L609.48,355a3,3,0,0,0,4.14-.33l7-8.19,4.35-5.09,0.74-.87a2.93,2.93,0,0,0-.07-3.87,3.65,3.65,0,0,0-.26-0.27l-20.48-17.49a2.89,2.89,0,0,0-.77-0.46,2.92,2.92,0,0,0-3.37.78l-1.48,2.06-10.17,12.24-0.11.12a2.8,2.8,0,0,0-.83,2.16A2.42,2.42,0,0,0,589,337.51Zm14.55,3.41a5.32,5.32,0,1,1,7.5-.59A5.32,5.32,0,0,1,603.54,340.92Z"/><path class="cls-2" d="M611,340.33a5.32,5.32,0,1,0-7.5.59A5.32,5.32,0,0,0,611,340.33Zm-5.1-6.61c0.93-1.09,2.51.48,1.58,1.57S605,334.81,605.94,333.72Zm2.37,2.59c0.87-1,2.3.3,1.71,1.36a0.85,0.85,0,0,1-.13.19l-0.15.15C608.8,338.8,607.43,337.34,608.31,336.32ZM604.91,338c0.9-1.06,2.43.47,1.53,1.52S604,339,604.91,338Z"/><path class="cls-6" d="M609.74,338l0.15-.15a0.85,0.85,0,0,0,.13-0.19c0.59-1.06-.84-2.37-1.71-1.36S608.8,338.8,609.74,338Z"/><path class="cls-6" d="M607.52,335.29c0.93-1.09-.65-2.66-1.58-1.57S606.59,336.38,607.52,335.29Z"/><path class="cls-6" d="M606.44,339.51c0.9-1.05-.63-2.58-1.53-1.52S605.54,340.56,606.44,339.51Z"/><rect class="cls-11" x="480.5" y="497.5" width="76" height="76" rx="11.11" ry="11.11"/><path class="cls-5" d="M577,568.25c0,6.28-5,11.75-11.17,11.75H474.19C468,580,463,574.53,463,568.25V520.61c0-6.28,5-11.61,11.19-11.61h91.65C572,509,577,514.33,577,520.61v47.64Z"/><circle class="cls-2" cx="489.93" cy="552.83" r="20.26"/><circle class="cls-9" cx="489.93" cy="552.83" r="16.99"/><circle class="cls-2" cx="551.37" cy="552.83" r="20.26"/><circle class="cls-9" cx="551.37" cy="552.83" r="16.99"/><path class="cls-2" d="M566.4,519.5c0,1.51-1.61,2.5-3.59,2.5H477.18c-2,0-3.59-1-3.59-2.5h0c0-1.5,1.61-2.5,3.59-2.5h85.62c2,0,3.59,1,3.59,2.5h0Z"/><rect class="cls-10" x="509" y="528" width="21" height="9"/><rect class="cls-8" x="516" y="541" width="8" height="5"/><rect class="cls-8" x="516" y="548" width="8" height="8"/><rect class="cls-8" x="516" y="557" width="8" height="7"/><rect class="cls-8" x="516" y="566" width="8" height="6"/><rect class="cls-11" x="228.5" y="346.5" width="65" height="65" rx="9.55" ry="9.55"/><path class="cls-7" d="M312,407.45a9.6,9.6,0,0,1-9.65,9.55h-78.7a9.6,9.6,0,0,1-9.65-9.55V366.55a9.6,9.6,0,0,1,9.65-9.55h78.7a9.6,9.6,0,0,1,9.65,9.55v40.89Z"/><ellipse class="cls-2" cx="236.62" cy="395.09" rx="17.6" ry="17.42"/><ellipse class="cls-9" cx="236.62" cy="395.09" rx="14.76" ry="14.61"/><ellipse class="cls-2" cx="289.98" cy="395.09" rx="17.6" ry="17.42"/><ellipse class="cls-9" cx="289.98" cy="395.09" rx="14.76" ry="14.61"/><path class="cls-2" d="M303,366.5c0,1.29-1.4,1.5-3.12,1.5H225.55c-1.73,0-3.12-.21-3.12-1.5h0c0-1.29,1.4-1.5,3.12-1.5h74.37c1.72,0,3.12.21,3.12,1.5h0Z"/><rect class="cls-10" x="253" y="374" width="20" height="7"/><rect class="cls-8" x="258" y="385" width="9" height="4"/><rect class="cls-8" x="258" y="392" width="9" height="5"/><rect class="cls-8" x="258" y="398" width="9" height="7"/><rect class="cls-8" x="258" y="407" width="9" height="5"/><path class="cls-8" d="M442.59,322c-0.34-.24-9.15-7.16-9.43-7.4-4.06-3.56-2.2-7.9-4.27-9.09s-1.27,3.59-2.83,5.57-6.51,2.23-4.74,4.07,5.42-1.11,9.84,2c0.3,0.21,9.12,7.14,9.43,7.41l0.79-1.44Z"/><path class="cls-8" d="M429.35,333.61c-0.34-.24-9.15-7.16-9.43-7.4-4.06-3.56-2.2-7.9-4.27-9.09s-1.27,3.59-2.83,5.57-6.51,2.23-4.74,4.07,5.42-1.11,9.84,2c0.3,0.21,9.12,7.14,9.43,7.41l0.79-1.44Z"/><path class="cls-8" d="M444.72,323.67c0.31,0.27,9.12,7.2,9.42,7.41,4.42,3.1,8.19.27,9.84,2s-3.18,2.08-4.75,4.07-0.62,6.85-2.83,5.57-0.21-5.53-4.27-9.09c-0.28-.24-9.09-7.17-9.43-7.4l1.21-1.11Z"/><path class="cls-8" d="M436.58,339.29c0.31,0.27,9.12,7.2,9.43,7.41,4.42,3.1,8.19.27,9.84,2s-3.18,2.08-4.75,4.07-0.62,6.85-2.83,5.57-0.21-5.53-4.27-9.09c-0.28-.24-9.09-7.17-9.43-7.4l1.21-1.11Z"/><path class="cls-4" d="M298,499.42c-7.83-7.54-15.79-19.3-4.37-36.47s15.77-22.69-.91-17.23S262.81,483,260,496.15,246,519,234.74,524c-17.92,7.93-42.71,32.48-2.3,64.22s54.78,13.46,62.61,1.73,3.83-35.51,23.6-44.05,31.95-24,9.7-19.35-36.7-11.07-31.07-26.12"/><path class="cls-5" d="M416.15,347.44L281.2,516.4l15.45,12.14L428.27,357l9.86-1.28s10.14-27.85,26.36-37.11c0,0-8.13.14-12.72-2.55-0.34-.2-0.74-0.5-0.74-0.5s-0.39-.32-0.67-0.6c-3.71-3.82-5.49-11.75-5.49-11.75-5.16,18-29.82,34.4-29.82,34.4Z"/><rect class="cls-2" x="268.09" y="526.87" width="8.65" height="31.37" transform="translate(-322.52 421.59) rotate(-51.85)"/><rect class="cls-2" x="258.64" y="540.7" width="5.82" height="31.37" transform="translate(-337.55 418.33) rotate(-51.85)"/><rect class="cls-5" x="242.33" y="561.63" width="14.06" height="20.56" transform="translate(-354.41 414.67) rotate(-51.85)"/><circle class="cls-8" cx="281.8" cy="576.91" r="2.83" transform="translate(-345.95 442.12) rotate(-51.85)"/><circle class="cls-8" cx="268.74" cy="579.82" r="2.82" transform="translate(-353.22 432.9) rotate(-51.84)"/><circle class="cls-8" cx="283.71" cy="592.78" r="2.82" transform="translate(-357.69 449.66) rotate(-51.84)"/><circle class="cls-8" cx="270.33" cy="593.04" r="2.82" transform="translate(-363.02 439.27) rotate(-51.85)"/><path class="cls-8" d="M641.29,538.65c6.15,1.43,8.23-1.22,11.29-9.55,3-8.16,21.67-62.41,26.28-76.29l-1.46-.48-0.22.67,0.53-1.59,1.46,0.48c4.26-13,21.61-67.43,24.07-75.76,2.51-8.5,2.11-11.05-3.68-13.57s-34.77-12.25-45.62-14.94S638.61,343,633.59,358.2l-23.33,70.57-1.26,3.8-23.33,70.57c-5,15.2-.26,16.15,10.06,20.47S635.14,537.21,641.29,538.65Z"/><path class="cls-5" d="M678.39,454.2c2.8-8.51,10.31-32,16.5-51.51L660.6,391.35,643.89,441.9l-17.25,52.17,34.29,11.34C667.59,486,675.57,462.71,678.39,454.2Z"/><path class="cls-4" d="M678.54,453.74c2.59-7.88,9.55-29.69,15.12-47.35l-34.29-11.34-15.5,46.87-15.71,47.51,34.29,11.34C668.51,483.27,675.93,461.61,678.54,453.74Z"/><circle class="cls-9" cx="680.76" cy="380.12" r="10.29" transform="translate(106.18 907.17) rotate(-71.71)"/><circle class="cls-5" cx="680.76" cy="380.12" r="2.57" transform="translate(106.16 907.15) rotate(-71.71)"/><circle class="cls-9" cx="636.61" cy="513.65" r="10.29" transform="translate(-50.91 956.85) rotate(-71.71)"/><circle class="cls-5" cx="636.61" cy="513.65" r="2.57" transform="translate(-50.93 956.82) rotate(-71.7)"/><rect class="cls-2" x="646.54" y="350.77" width="4.87" height="27.29" transform="translate(99.21 866.14) rotate(-71.7)"/><rect class="cls-2" x="644.4" y="357.24" width="4.87" height="27.29" transform="translate(91.68 868.64) rotate(-71.71)"/><rect class="cls-2" x="641.62" y="364.18" width="5.85" height="27.29" transform="translate(83.55 871.26) rotate(-71.71)"/><rect class="cls-2" x="640.12" y="370.2" width="4.87" height="27.29" transform="translate(76.28 873.28) rotate(-71.69)"/><rect class="cls-2" x="637.98" y="376.68" width="4.87" height="27.29" transform="translate(68.65 875.67) rotate(-71.69)"/><rect class="cls-2" x="635.2" y="383.62" width="5.85" height="27.29" transform="translate(60.61 878.4) rotate(-71.7)"/><rect class="cls-2" x="633.39" y="390.56" width="4.87" height="27.29" transform="translate(52.51 881.06) rotate(-71.71)"/><rect class="cls-2" x="631.55" y="396.11" width="4.87" height="27.29" transform="translate(45.85 882.97) rotate(-71.7)"/><rect class="cls-2" x="629.41" y="402.59" width="4.87" height="27.29" transform="translate(38.1 885.2) rotate(-71.68)"/><rect class="cls-2" x="626.96" y="409.99" width="4.87" height="27.29" transform="translate(29.57 888.19) rotate(-71.7)"/><rect class="cls-2" x="624.82" y="416.47" width="4.87" height="27.29" transform="translate(22 890.66) rotate(-71.71)"/><rect class="cls-2" x="622.99" y="422.02" width="4.87" height="27.29" transform="translate(15.38 892.61) rotate(-71.7)"/><rect class="cls-2" x="620.2" y="428.96" width="5.85" height="27.29" transform="translate(7.36 895.39) rotate(-71.71)"/><rect class="cls-2" x="619.04" y="435.44" width="3.9" height="27.29" transform="translate(-0.43 897.57) rotate(-71.69)"/><rect class="cls-2" x="616.26" y="442.38" width="4.87" height="27.29" transform="translate(-8.51 900.27) rotate(-71.7)"/><rect class="cls-2" x="613.78" y="448.39" width="5.85" height="27.29" transform="translate(-15.52 902.59) rotate(-71.71)"/><rect class="cls-2" x="611.97" y="455.33" width="4.87" height="27.29" transform="translate(-23.8 905.01) rotate(-71.7)"/><rect class="cls-2" x="609.5" y="461.34" width="5.85" height="27.29" transform="translate(-30.76 907.41) rotate(-71.71)"/><rect class="cls-2" x="607.69" y="468.28" width="4.87" height="27.29" transform="translate(-38.84 910.12) rotate(-71.72)"/><rect class="cls-2" x="605.55" y="474.76" width="4.87" height="27.29" transform="translate(-46.65 912.25) rotate(-71.7)"/><rect class="cls-2" x="603.41" y="481.24" width="4.87" height="27.29" transform="translate(-54.24 914.7) rotate(-71.7)"/><rect class="cls-2" x="601.26" y="487.72" width="4.87" height="27.29" transform="translate(-62.02 916.85) rotate(-71.68)"/><rect class="cls-2" x="598.48" y="494.66" width="5.85" height="27.29" transform="translate(-70.04 919.67) rotate(-71.7)"/><rect class="cls-10" x="650.59" y="360.41" width="3.9" height="17.54" transform="translate(97.21 872.88) rotate(-71.71)"/><rect class="cls-10" x="646.64" y="373.83" width="2.92" height="17.54" transform="translate(81.34 877.78) rotate(-71.7)"/><rect class="cls-10" x="644.5" y="380.3" width="2.92" height="17.54" transform="translate(73.74 880.21) rotate(-71.7)"/><rect class="cls-10" x="642.02" y="386.32" width="3.9" height="17.54" transform="translate(66.61 882.38) rotate(-71.69)"/><rect class="cls-10" x="638.07" y="399.74" width="2.92" height="17.54" transform="translate(50.87 887.42) rotate(-71.7)"/><rect class="cls-10" x="635.6" y="405.75" width="3.9" height="17.54" transform="translate(43.86 889.73) rotate(-71.71)"/><rect class="cls-10" x="631.65" y="419.17" width="2.92" height="17.54" transform="translate(28.06 894.71) rotate(-71.71)"/><rect class="cls-10" x="629.5" y="425.64" width="2.92" height="17.54" transform="translate(20.5 897.19) rotate(-71.71)"/><rect class="cls-10" x="627.36" y="432.12" width="2.92" height="17.54" transform="translate(12.91 899.65) rotate(-71.72)"/><rect class="cls-10" x="622.75" y="444.62" width="3.9" height="17.54" transform="translate(-1.84 904.23) rotate(-71.71)"/><rect class="cls-10" x="620.94" y="451.55" width="2.92" height="17.54" transform="translate(-10.19 906.55) rotate(-71.69)"/><rect class="cls-10" x="616.66" y="464.51" width="2.92" height="17.54" transform="translate(-25 911.98) rotate(-71.74)"/><rect class="cls-10" x="614.51" y="470.99" width="2.92" height="17.54" transform="translate(-32.75 914.22) rotate(-71.72)"/><rect class="cls-10" x="611.73" y="477.93" width="3.9" height="17.54" transform="translate(-41.19 916.38) rotate(-71.69)"/><rect class="cls-10" x="607.11" y="490.42" width="4.87" height="17.54" transform="translate(-55.82 921.12) rotate(-71.7)"/><rect class="cls-10" x="605.31" y="497.36" width="3.9" height="17.54" transform="matrix(0.31, -0.95, 0.95, 0.31, -63.87, 923.87)"/><ellipse class="cls-8" cx="660.77" cy="447.88" rx="48.6" ry="7.15" transform="translate(28.11 934.65) rotate(-71.71)"/><polygon class="cls-2" points="654.69 455.8 660.35 438.7 667.9 437.59 660.09 461.2 654.69 455.8"/><rect class="cls-4" x="117" y="253" width="76" height="117" rx="9.36" ry="9.36"/><path class="cls-5" d="M117.87,356v4.68a9.36,9.36,0,0,0,9.36,9.36h57.08a9.36,9.36,0,0,0,9.36-9.36V356h-75.8Z"/><circle class="cls-8" cx="154.84" cy="311.58" r="32.45"/><circle class="cls-7" cx="154.84" cy="311.58" r="28.71"/><circle class="cls-2" cx="154.84" cy="311.58" r="23.51"/><circle class="cls-10" cx="154.84" cy="311.58" r="10.86"/><rect class="cls-5" x="138" y="263" width="32" height="6"/><rect class="cls-6" x="520" y="147" width="94" height="61" rx="7.51" ry="7.51"/><circle class="cls-8" cx="568.39" cy="176.85" r="26.03"/><circle class="cls-2" cx="568.39" cy="176.85" r="23.03"/><circle class="cls-9" cx="568.39" cy="176.85" r="18.86"/><circle class="cls-10" cx="568.39" cy="176.85" r="8.71"/><rect class="cls-9" x="600" y="163" width="6" height="28"/><rect class="cls-9" x="529" y="163" width="6" height="28"/><path class="cls-4" d="M444,509a5.16,5.16,0,0,1,.72.6,47.25,47.25,0,1,0-87.21,0,4.93,4.93,0,0,1,.76-0.64,6.43,6.43,0,0,1,2.77-3.81,42.39,42.39,0,1,1,80.19,0A6.44,6.44,0,0,1,444,509Z"/><path class="cls-5" d="M444,509a6.4,6.4,0,0,1-.21,3.92l-5.5,14.39a6.4,6.4,0,0,1-2.42,3,5.05,5.05,0,0,0,5.36-3.21L445.85,515a5.06,5.06,0,0,0-1.15-5.38A5.16,5.16,0,0,0,444,509Z"/><path class="cls-8" d="M438.26,527.33l5.5-14.39a6.43,6.43,0,0,0-3.72-8.31l-1.57-.6a7.94,7.94,0,0,1,.05,5.79l-6.86,17.94a7.93,7.93,0,0,1-2.16,3.11l0.43,0.17A6.45,6.45,0,0,0,438.26,527.33Z"/><path class="cls-5" d="M364,527.33l-5.5-14.39a6.39,6.39,0,0,1-.21-3.92,4.93,4.93,0,0,0-.76.64,5.05,5.05,0,0,0-1.11,5.34L361,527.16a5.05,5.05,0,0,0,5.35,3.21A6.39,6.39,0,0,1,364,527.33Z"/><path class="cls-8" d="M358.24,509a6.39,6.39,0,0,0,.21,3.92l5.5,14.39a6.45,6.45,0,0,0,8.31,3.71l0.43-.17a7.93,7.93,0,0,1-2.16-3.11l-6.86-17.94a7.94,7.94,0,0,1,.05-5.79l-1.57.6a6.51,6.51,0,0,0-1.15.58A6.43,6.43,0,0,0,358.24,509Z"/><path class="cls-10" d="M363.68,509.82l6.86,17.94a8,8,0,0,0,10.28,4.59l4.34-1.66a8,8,0,0,0,4.59-10.28l-6.86-17.95a8,8,0,0,0-10.28-4.59l-4.33,1.66A8,8,0,0,0,363.68,509.82Z"/><path class="cls-10" d="M431.67,527.77l6.86-17.94a8,8,0,0,0-4.59-10.28l-4.34-1.66a8,8,0,0,0-10.28,4.59l-6.86,17.95a8,8,0,0,0,4.59,10.28l4.34,1.66A8,8,0,0,0,431.67,527.77Z"/><rect class="cls-1" x="574" y="233" width="5" height="4"/><rect class="cls-1" x="563" y="233" width="4" height="4"/><rect class="cls-1" x="563" y="243" width="4" height="15"/><path class="cls-1" d="M636,247.48v-0.37c0-7.66-5.75-15.11-13.41-15.11h-9.22c0.34,1-.37,2.52-0.37,3.51v0.05c0,4.19-2.5,7.44-6.69,7.44H586v15h44.61C634.09,256,636,252.13,636,247.48Z"/><path class="cls-1" d="M609.09,235c0-1.33-1.08-2-2.41-2H586v4h20.69C608,237,609.09,236.33,609.09,235Z"/><rect class="cls-1" x="574" y="243" width="5" height="15"/><path class="cls-1" d="M522.19,243a13.4,13.4,0,0,0-.26,2.54A12.35,12.35,0,0,0,534.65,258H556V243H522.19Z"/><path class="cls-1" d="M532.2,233c-3.38,1-6.09,2-7.88,4H556v-4H532.2Z"/><path class="cls-1" d="M513.67,233c-1.33,0-2.41.67-2.41,2s1.08,2,2.41,2h4.81c0.86-1,2-3,3.4-4h-8.21Z"/><rect class="cls-4" x="574" y="258" width="5" height="2"/><path class="cls-4" d="M532.2,233H521.88c-1.39,1-2.54,3-3.4,4h5.83C526.11,235,528.82,234,532.2,233Z"/><path class="cls-4" d="M632,263h32.58c-0.28,0-.44-1.07-0.44-1.83a4.72,4.72,0,0,1,1.26-3.17h-27A17.05,17.05,0,0,1,632,263Z"/><path class="cls-4" d="M630.61,258H586v2h36.59A20,20,0,0,0,630.61,258Z"/><path class="cls-4" d="M567,260v-2h-4v2.65c1,0,2.44-.65,3.08-0.65H567Z"/><path class="cls-4" d="M556,260.19V258H534.65a12.35,12.35,0,0,1-12.71-12.46,13.4,13.4,0,0,1,.26-2.54H517a19.66,19.66,0,0,0-.23,2.95,18,18,0,0,0,5.57,13.13c15.25,0.49,28,.87,32.54,1A7.62,7.62,0,0,1,556,260.19Z"/><path class="cls-8" d="M439.9,284.51c3.49-5.34,7.77-11.76,24-13.61s79.85-3.47,91-3.84A9.49,9.49,0,0,0,556,267v-6.81a9.35,9.35,0,0,0-1.14-.07c-4.52-.15-17.54-0.51-32.79-1-22.27-.72-48.65-1.74-58.29-2.84-16.23-1.85-20.46-8.26-23.94-13.61-2.54-3.89-5.58-8-7.06-2.78a89.9,89.9,0,0,0-3.69,23.7,89.66,89.66,0,0,0,3.71,23.7C434.29,292.47,437.36,288.4,439.9,284.51Z"/><rect class="cls-8" x="574" y="260" width="5" height="5"/><path class="cls-8" d="M567,260h-0.92c-0.64,0-2.08.69-3.08,0.65v5.88a11.57,11.57,0,0,1,2.88-1.53H567v-5Z"/><rect class="cls-8" x="574" y="237" width="5" height="6"/><rect class="cls-8" x="563" y="227" width="4" height="6"/><rect class="cls-8" x="563" y="237" width="4" height="6"/><rect class="cls-8" x="574" y="227" width="5" height="6"/><path class="cls-8" d="M586,233h20.69c1.33,0,2.41.67,2.41,2s-1.08,2-2.41,2H586v6h20.31c4.19,0,6.69-3.25,6.69-7.44v-0.05c0-1,.71-2.51.37-3.51h9.22c7.66,0,13.41,7.46,13.41,15.11v0.37A12.13,12.13,0,0,1,630.43,258a13.45,13.45,0,0,1-7.85,2H586v5h36.59c3.38,0,6.6-.17,9.4-1.7a17.15,17.15,0,0,0,9-15.81v-0.37c0-10.52-7.9-20.11-18.41-20.11H586v6Z"/><path class="cls-8" d="M556,243v-6H513.67c-1.33,0-2.41-.67-2.41-2s1.08-2,2.41-2H556v-6H513.25c-4.19,0-8.25,4.31-8.25,8.51v0.05c0,4.19,4.05,7.44,8.25,7.44H556Z"/><polygon class="cls-5" points="582 275 579 275 579 278 586 278 586 275 584 275 584 272 582 272 582 275"/><polygon class="cls-9" points="579 233.53 579 238.34 579 243.15 579 258.39 579 260.79 579 266.4 579 272 582.63 272 584.23 272 586 272 586 266.4 586 260.79 586 258.39 586 243.15 586 238.34 586 233.53 586 227.92 586 215 579 215 579 227.92 579 233.53"/><polygon class="cls-5" points="571 275 567 275 567 278 574 278 574 275 573 275 573 272 571 272 571 275"/><polygon class="cls-9" points="567 233.53 567 238.34 567 243.15 567 258.39 567 260.79 567 266.4 567 272 571.41 272 573.81 272 574 272 574 266.4 574 260.79 574 258.39 574 243.15 574 238.34 574 233.53 574 227.92 574 215 567 215 567 227.92 567 233.53"/><polygon class="cls-5" points="559 275 556 275 556 278 563 278 563 275 561 275 561 272 559 272 559 275"/><polygon class="cls-9" points="556 233.53 556 238.34 556 243.15 556 258.39 556 260.19 556 266.99 556 272 560.18 272 562.59 272 563 272 563 266.53 563 260.65 563 258.39 563 243.15 563 238.34 563 233.53 563 227.92 563 215 556 215 556 227.92 556 233.53"/><path class="cls-5" d="M664.56,264a5.42,5.42,0,0,0,6.73,3,1.85,1.85,0,0,0,1.62,1A2.15,2.15,0,0,0,675,265.6v-8a2.15,2.15,0,0,0-2.08-2.41,2.19,2.19,0,0,0-2,1.46,4.81,4.81,0,0,0-1.39-.21,5.34,5.34,0,0,0-4.13,2A5.39,5.39,0,0,0,664.56,264Z"/><rect class="cls-1" x="243" y="248" width="3" height="4"/><rect class="cls-1" x="243" y="240" width="3" height="4"/><rect class="cls-1" x="227" y="240" width="13" height="4"/><path class="cls-1" d="M236,298h0.29c6,0,10.75-5.45,10.75-11.43v-7.2c-1,.26-0.91-0.37-1.68-0.37h0c-3.28,0-5.28-1.87-5.28-5.15V259H227v33.84C229,295.56,232.33,298,236,298Z"/><path class="cls-1" d="M244.5,276c1,0,1.5-.84,1.5-1.88V259h-3v15.14C243,275.18,243.46,276,244.5,276Z"/><rect class="cls-1" x="227" y="248" width="13" height="4"/><path class="cls-1" d="M240,208.12a20.48,20.48,0,0,0-2.62-.21A10.19,10.19,0,0,0,227,217.85V234h13V208.12Z"/><path class="cls-1" d="M246,215.94a7.12,7.12,0,0,0-3-6.16V234h3V215.94Z"/><path class="cls-1" d="M246,201.46c0-1-.46-1.88-1.5-1.88s-1.5.84-1.5,1.88v3.76c0,0.67,3,1.57,3,2.66v-6.41Z"/><rect class="cls-4" x="226" y="248" width="1" height="4"/><path class="cls-4" d="M246,215.94v-8.06c0-1.09-3-2-3-2.66v4.56A7.12,7.12,0,0,1,246,215.94Z"/><path class="cls-4" d="M224,293.91v25.45c0-.22.38-0.34,1-0.34,1,0,1,.37,2,1V298.92A33.22,33.22,0,0,1,224,293.91Z"/><path class="cls-4" d="M227,292.84V259h-1v27.57C226,288.92,226,291.08,227,292.84Z"/><path class="cls-4" d="M226,244h1v-4h-1.32a6.75,6.75,0,0,0,.32,2.41V244Z"/><path class="cls-4" d="M226,234h1V217.85a10.19,10.19,0,0,1,10.38-9.94,20.48,20.48,0,0,1,2.62.21V204a21.84,21.84,0,0,0-2.57-.18,14.41,14.41,0,0,0-10.4,4.35c-0.39,11.91-.75,21.63-0.86,25.16A1.2,1.2,0,0,1,226,234Z"/><path class="cls-8" d="M207,143.82c4.18,2.72,9.19,6.07,10.63,18.76s2.71,62.12,3,70.8a2.51,2.51,0,0,0,.05.62H226a2.41,2.41,0,0,0,.05-0.62c0.12-3.53.4-13.57,0.78-25.49,0.56-17.4,1.36-37.95,2.22-45.48,1.45-12.69,6.46-16,10.63-18.68,3-2,6.22-4.34,2.17-5.49a70.31,70.31,0,0,0-18.52-2.87,70,70,0,0,0-18.52,2.9C200.81,139.43,204,141.83,207,143.82Z"/><rect class="cls-8" x="223" y="248" width="3" height="4"/><path class="cls-8" d="M226,244v-1.59a6.75,6.75,0,0,1-.32-2.41h-4.6s1.92,1.81,1.92,2.26V244h3Z"/><rect class="cls-8" x="240" y="248" width="3" height="4"/><rect class="cls-8" x="246" y="240" width="5" height="4"/><rect class="cls-8" x="240" y="240" width="3" height="4"/><rect class="cls-8" x="246" y="248" width="5" height="4"/><path class="cls-8" d="M246,259v15.14c0,1-.46,1.88-1.5,1.88s-1.5-.84-1.5-1.88V259h-3v14.85c0,3.28,2,5.15,5.28,5.15h0c0.77,0,.68.63,1.68,0.37v7.2c0,6-4.76,11.43-10.75,11.43H236a10.06,10.06,0,0,1-8.3-4.83,12.15,12.15,0,0,1-1.66-6.61V259h-3v27.57c0,2.64-.23,5.15,1,7.34a14.51,14.51,0,0,0,3.93,5.15A13.19,13.19,0,0,0,236,302h0.29c8.22,0,14.75-7.22,14.75-15.43V259h-5Z"/><path class="cls-8" d="M240,234h3V201.46c0-1,.46-1.88,1.5-1.88s1.5,0.84,1.5,1.88V234h5V201.13c0-3.28-2.4-7.13-5.68-7.13h0c-3.28,0-5.28,3.85-5.28,7.13V234Z"/><polygon class="cls-5" points="214 255 214 252 210 252 210 259 214 259 214 256 217 256 217 255 214 255"/><polygon class="cls-9" points="246.87 252 243.11 252 239.35 252 227.44 252 225.56 252 221.18 252 217 252 217 255.34 217 256.6 217 259 221.18 259 225.56 259 227.44 259 239.35 259 243.11 259 246.87 259 251.25 259 262 259 262 252 251.25 252 246.87 252"/><polygon class="cls-5" points="214 245 214 244 210 244 210 248 214.26 248 214.26 248 217 248 217 245 214 245"/><polygon class="cls-9" points="246.87 244 243.11 244 239.35 244 227.44 244 225.56 244 221.18 244 217 244 217 246.57 217 248.45 217 248 221.18 248 225.56 248 227.44 248 239.35 248 243.11 248 246.87 248 251.25 248 262 248 262 244 251.25 244 246.87 244"/><polygon class="cls-5" points="214 238 214 234 210 234 210 240 214 240 214 239 217 239 217 238 214 238"/><polygon class="cls-9" points="246.87 234 243.11 234 239.35 234 227.44 234 226.04 234 220.72 234 217 234 217 237.8 217 239.68 217 240 221.08 240 225.68 240 227.44 240 239.35 240 243.11 240 246.87 240 251.25 240 262 240 262 234 251.25 234 246.87 234"/><path class="cls-5" d="M223.06,319.36a4.24,4.24,0,0,0-2.35,5.26,1.09,1.09,0,0,0-.78,1c0,1,.84,1.37,1.88,1.37h6.27c1,0,1.88-.33,1.88-1.37a1.55,1.55,0,0,0-1.14-1.47,3.34,3.34,0,0,0,.16-1,4.11,4.11,0,0,0-1.53-3.2,4.2,4.2,0,0,0-2.72-1A4.25,4.25,0,0,0,223.06,319.36Z"/><path class="cls-1" d="M176,460.46l1.5-1.22-21-25.78-1.49,1.22-1.18,1-3,2.44-2.68,2.19L131,454.21a8.72,8.72,0,0,0-6.56-7.67c-4.57-1.31-9.24.79-10.37,4.75s1.63,8.2,6.2,9.51a9,9,0,0,0,8.25-1.5,1.61,1.61,0,0,0,.49-0.21l20.54-16.75,17.83,21.86-17,13.83a8.74,8.74,0,0,0-6.57-7.68c-4.57-1.31-9.24.78-10.37,4.74s1.63,8.2,6.2,9.51a9,9,0,0,0,8.26-1.49,1.55,1.55,0,0,0,.5-0.2l20.67-16.86,2.68-2.18,3-2.44Z"/><rect class="cls-1" x="160.59" y="435.71" width="4.21" height="28.21" transform="translate(-247.71 204.1) rotate(-39.21)"/><path class="cls-1" d="M279.43,191.66l1-1.49,2.47-3.77L285.1,183l14.12-21.52a10.18,10.18,0,0,0,10,6.23c5.55-.15,10-4.12,9.87-8.93s-4.7-8.56-10.24-8.4a10.47,10.47,0,0,0-8.65,4.57,1.9,1.9,0,0,0-.48.4l-17,25.87-27.54-18.06,14-21.35a10.2,10.2,0,0,0,10,6.24c5.55-.15,10-4.12,9.88-8.93s-4.69-8.56-10.24-8.4a10.48,10.48,0,0,0-8.67,4.56,1.83,1.83,0,0,0-.49.39l-17.08,26-2.21,3.37-2.47,3.77-1,1.49-1.24,1.88,32.47,21.3Z"/><rect class="cls-1" x="263.01" y="161.08" width="4.92" height="32.93" transform="translate(-28.66 302) rotate(-56.71)"/><path class="cls-1" d="M525.46,355a9,9,0,0,0-.79-8.35,1.61,1.61,0,0,0-.16-0.51l-14.93-21.89,23.31-15.9,12.32,18.08a8.74,8.74,0,0,0-8.21,5.88c-1.7,4.44,0,9.27,3.84,10.74s8.31-.92,10-5.36a9,9,0,0,0-.78-8.35,1.54,1.54,0,0,0-.15-0.51l-15-22L532.93,304l-2.18-3.19-0.86-1.26-1.08-1.59-27.49,18.74,1.09,1.59,0.86,1.26,2.18,3.19,1.95,2.86,12.42,18.22a8.72,8.72,0,0,0-8.2,5.88c-1.7,4.44,0,9.27,3.84,10.74S523.77,359.47,525.46,355Z"/><rect class="cls-1" x="504.04" y="309.7" width="28.21" height="4.21" transform="translate(-85.61 346.08) rotate(-34.29)"/><path class="cls-1" d="M371.79,599.34a13,13,0,0,1-1.1-1.73,9.86,9.86,0,0,1-.84-2,8.15,8.15,0,0,1-.35-2.38,7.14,7.14,0,0,1,.47-2.53,7.88,7.88,0,0,1,1.27-2.2,9.38,9.38,0,0,1,1.71-1.63,11.74,11.74,0,0,1,1.87-1.16c0.38-.19.76-0.36,1.15-0.52a18.52,18.52,0,0,1-2.08-2.37,15.14,15.14,0,0,1-1.11-1.76,13.26,13.26,0,0,1-.86-1.94,10,10,0,0,1-.55-4.24,7.77,7.77,0,0,1,.18-1.05c0-.17.09-0.35,0.14-0.53s0.09-.28.16-0.48a13.48,13.48,0,0,1,.84-1.84,9.39,9.39,0,0,1,.53-0.87,9.64,9.64,0,0,1,.6-0.83,13.08,13.08,0,0,1,1.4-1.53,13.48,13.48,0,0,1,3.49-2.38c0.19-.09.39-0.17,0.59-0.25-0.48-.67-1-1.33-1.44-2s-1.08-1.54-1.61-2.32c-0.27-.39-0.53-0.78-0.79-1.17l-0.78-1.18c-0.51-.79-1-1.59-1.51-2.4s-1-1.62-1.45-2.44-0.94-1.65-1.39-2.49-0.89-1.69-1.29-2.57a0.24,0.24,0,0,1,.37-0.28c0.74,0.62,1.43,1.28,2.12,1.93s1.36,1.33,2,2,1.31,1.37,2,2.06,1.28,1.4,1.9,2.1l0.93,1.07,0.92,1.07q0.91,1.08,1.8,2.18c0.6,0.73,1.18,1.47,1.76,2.21s1.15,1.49,1.7,2.25l0.19,0.26a2,2,0,0,1-.46,2.76,1.9,1.9,0,0,1-1.43.26,2.29,2.29,0,0,0-.32-0.06h-0.39c-0.28.65-.54,0-0.81,0-0.55,0-1.1,0-1.66.06a9.1,9.1,0,0,0-3.26.85,5.63,5.63,0,0,0-1.4,1,5.85,5.85,0,0,0-1.06,1.36,7,7,0,0,0-.63,1.61c0,0.1-.07.3-0.09,0.43s0,0.25,0,.39a4.35,4.35,0,0,0,0,.82,4.88,4.88,0,0,0,.43,1.56,7.22,7.22,0,0,0,.83,1.41,13.17,13.17,0,0,0,1.08,1.27c0.4,0.4.79,0.8,1.23,1.17,0.86,0.75,1.74,1.48,2.68,2.16,0.47,0.34,1,.66,1.45,1l0.74,0.45c0.24,0.14.51,0.3,0.7,0.39a2.33,2.33,0,0,1-.53,4.36l-0.37.08-0.33.07-0.38.09-0.76.21c-0.5.15-1,.31-1.48,0.49s-0.95.38-1.38,0.6a12,12,0,0,0-1.21.7,6.48,6.48,0,0,0-.95.78,3.36,3.36,0,0,0-.62.84,2.85,2.85,0,0,0-.31,1,4.44,4.44,0,0,0,0,1.2,9.68,9.68,0,0,0,.91,2.82c0.23,0.49.49,1,.77,1.46s0.58,1,.9,1.45,0.64,1,1,1.44l1.05,1.43,1.09,1.43c0.37,0.48.74,1,1.11,1.45h0a0.24,0.24,0,0,1,0,.33,0.23,0.23,0,0,1-.25,0,29.72,29.72,0,0,1-3.15-1.93l-0.76-.54-0.74-.57c-0.48-.39-1-0.79-1.44-1.22s-0.92-.88-1.36-1.35A18,18,0,0,1,371.79,599.34Z"/><polygon class="cls-1" points="549.55 594.72 551.77 597.13 548.76 599.9 522.89 623.71 519.93 626.44 517.71 624.03 520.6 621.37 513.5 613.64 539.55 589.67 546.66 597.38 549.55 594.72"/><polygon class="cls-1" points="446.55 580.49 446.59 583.42 444.21 583.45 444.18 580.59 436.56 580.69 436.24 554.99 443.85 554.9 443.82 552.04 446.19 552.01 446.23 554.98 446.55 580.49"/><polygon class="cls-1" points="396.19 409.41 402.24 409.34 402.21 407.07 404.1 407.05 404.13 409.4 404.38 429.66 404.41 431.99 402.52 432.01 402.49 429.75 396.45 429.82 396.19 409.41"/><polygon class="cls-1" points="370.19 364.51 371.96 362.27 363.71 355.75 379.65 335.59 387.89 342.11 389.67 339.87 392.24 341.9 390.4 344.24 374.58 364.25 372.76 366.54 370.19 364.51"/><path class="cls-1" d="M162.88,419.16a0.36,0.36,0,0,0,.08.11h0l-0.41-.26A0.24,0.24,0,0,1,162.88,419.16Z"/><path class="cls-1" d="M155.81,399.95l43.88,11.28a2,2,0,0,1,1.5,2.38c-0.24.92-2.44,2.84-4.38,4.27a63,63,0,0,1-6.79,4,36.33,36.33,0,0,1-7.38,2.92,25.83,25.83,0,0,1-8.13,1,17.88,17.88,0,0,1-3.86-.62,13.69,13.69,0,0,1-3.26-1.38,11.59,11.59,0,0,1-2.34-1.8,10.13,10.13,0,0,1-1.38-1.73,7.3,7.3,0,0,1-.44-0.63,1.1,1.1,0,0,0-.26-0.28,10.9,10.9,0,0,1,1.31.37c0.49,0.27,1.28.25,2,.52a13.94,13.94,0,0,0,2.32.65,38.18,38.18,0,0,0,4.45.6c2.27,0,7.09,0,16.44-3.27a23.47,23.47,0,0,0,6.51-3.76l0.2-.06s-46.37-12-48.58-12.62a13.05,13.05,0,0,1-9-8.34c-2.43-6.53.19-13.53,5.85-15.64s12.22,1.48,14.65,8C161.14,391.19,159.61,397.1,155.81,399.95Z"/><path class="cls-1" d="M509.93,384.69l0.17,0s-29.27-24.62-30.65-25.81a10.42,10.42,0,0,1-3.59-9.1c0.5-5.54,4.79-9.68,9.59-9.25s8.29,5.27,7.8,10.81c-0.41,4.62-3.55,8.36-7.27,9.1L513.7,383.7a1.56,1.56,0,0,1,.25,2.23c-0.49.58-2.73,1.2-4.62,1.57a49.89,49.89,0,0,1-6.26.51,29.1,29.1,0,0,1-6.32-.44,20.65,20.65,0,0,1-6.18-2.11,14.3,14.3,0,0,1-2.57-1.77,11,11,0,0,1-1.87-2.11,9.21,9.21,0,0,1-1.07-2.11,8.17,8.17,0,0,1-.4-1.72c0-.24-0.09-0.42-0.09-0.61a0.88,0.88,0,0,0-.08-0.28,7.12,7.12,0,0,1,.8.7c0.26,0.36.84,0.62,1.24,1.05a11.21,11.21,0,0,0,1.45,1.27,30.57,30.57,0,0,0,3,2c1.64,0.78,5.12,2.42,13,3.3A18.77,18.77,0,0,0,509.93,384.69Z"/><path class="cls-1" d="M484.46,376.75a0.26,0.26,0,0,0,0,.12l0,0-0.21-.33A0.19,0.19,0,0,1,484.46,376.75Z"/><path class="cls-1" d="M483.26,472.6l-9.13-9.7-12.5,11.77,11.06,11.75a0.93,0.93,0,0,1,.18.26,5.42,5.42,0,0,1,1.3,4.91c-0.6,2.83-3.06,4.7-5.52,4.18s-3.95-3.24-3.35-6.07a5.23,5.23,0,0,1,4.34-4.28l-9.2-9.77-3.69-3.92-0.8-.85L470.69,457l0.8,0.85,3.69,3.92,11.13,11.82a1,1,0,0,1,.17.26,5.42,5.42,0,0,1,1.3,4.92c-0.6,2.83-3.06,4.7-5.52,4.18s-3.94-3.25-3.35-6.08A5.24,5.24,0,0,1,483.26,472.6Z"/><path class="cls-1" d="M318.74,184.21a12.53,12.53,0,0,1,11.17-3.5c6.56,1,11.14,6.46,10.25,12.14s-6.95,9.44-13.51,8.41c-5.47-.86-9.84-5-10.3-9.4L286.53,223a1.89,1.89,0,1,1-2.73-2.61l34.3-35.85A2.23,2.23,0,0,1,318.74,184.21Z"/><path class="cls-1" d="M226.06,426.28c6.56,1,11.14,6.46,10.25,12.14s-6.95,9.44-13.5,8.41c-5.47-.86-9.84-5-10.3-9.41l-29.83,31.18a1.89,1.89,0,1,1-2.73-2.61l34.3-35.85a2.23,2.23,0,0,1,.64-0.37A12.53,12.53,0,0,1,226.06,426.28Z"/><path class="cls-1" d="M662.32,296.72a25.85,25.85,0,0,0,2.85,2.1l0.78,0.43,0.77,0.45c0.5,0.3,1,.64,1.57.92L669,301l0.41,0.21,0.41,0.19c0.56,0.23,1.13.43,1.7,0.61a22.39,22.39,0,0,0,3.5.78,26.58,26.58,0,0,0,7,0,31.52,31.52,0,0,0,6.75-1.63c2.17-.78,7.3-2.22,8.89-5.33s1.48-7.06-11.56-7.25c-1.09,0-2.19,0-3.27,0l-3.25.08-6.43.22-6.33.24-5.93.21-0.21-.27c-1.32-1.7-2.61-3.48-4-5.23a36.62,36.62,0,0,0-4.79-5,28.62,28.62,0,0,0-5.81-3.8l-0.78-.36-0.39-.18-0.1,0-0.13-.06-0.18-.08-0.39-.16-0.45-.17c-0.29-.1-0.58-0.2-0.87-0.29a16.78,16.78,0,0,0-3.59-.68,15.89,15.89,0,0,0-7.17,1.09,16.82,16.82,0,0,0-5.87,4,18.36,18.36,0,0,0-3.74,5.74,19.68,19.68,0,0,0-1.42,6.45c0,0.28,0,.55,0,0.83-3.23.16-6.35,0.34-9.29,0.47-1.51.06-3,.16-4.43,0.21l-2.13.08-0.52,0h-0.46c-0.31,0-.61,0-0.9,0a6.8,6.8,0,0,1-3.07-.9,4.11,4.11,0,0,1-1.73-2.15,5.94,5.94,0,0,1-.23-2.8,6.74,6.74,0,0,1,.88-2.53,6,6,0,0,1,.35-0.51l0.09-.11,0.11-.13,0.19-.19a4.13,4.13,0,0,1,.91-0.65,4.83,4.83,0,0,1,2.05-.54h0.25a3.39,3.39,0,0,0,1.67,6.39,3.63,3.63,0,0,0,3.15-3.11,4,4,0,0,0-1.18-3.31A6.18,6.18,0,0,0,603,280a7.48,7.48,0,0,0-2.91.59,5.38,5.38,0,0,0-1.35.79l-0.32.28-0.13.12-0.15.15a7.36,7.36,0,0,0-.54.63,8.65,8.65,0,0,0-1.48,3.12,8,8,0,0,0,0,3.9,6.68,6.68,0,0,0,2.47,3.7,9.17,9.17,0,0,0,4.3,1.66c0.38,0.05.76,0.09,1.15,0.12h1.1l2.13,0c1.44,0,2.94,0,4.48,0,3.05,0,6.23-.07,9.55-0.12l0,0.12,0.17,0.79,0.21,0.78a16.35,16.35,0,0,0,2.87,5.66,16.17,16.17,0,0,0,4.66,4,16.83,16.83,0,0,0,5.48,2,14.84,14.84,0,0,0,10.56-2.09,11.81,11.81,0,0,0,3.58-3.68,12.54,12.54,0,0,0,1.68-4.46,15.78,15.78,0,0,0,.13-4.31l0-.32q3.8-.36,7.71-0.79A40.54,40.54,0,0,0,662.32,296.72Z"/><path class="cls-1" d="M666.69,292.07c1.88-.15,3.78-0.28,5.7-0.4s3.84-.22,5.78-0.29,3.89-.1,5.84-0.06c1,0,2,.06,2.93.12s1.95,0.16,2.9.31a13.17,13.17,0,0,1,3.88,1.13c1.93,1.07-.2,2.8-0.53,3.11a11.66,11.66,0,0,1-2.3,1.63,24.72,24.72,0,0,1-11.19,2.77,21.48,21.48,0,0,1-5.65-.67,17.44,17.44,0,0,1-2.64-.92c-0.42-.18-0.84-0.39-1.24-0.61l-0.3-.16-0.29-.17-0.65-.38-0.57-.38c-0.19-.12-0.38-0.25-0.56-0.39l-0.56-.41-0.55-.44a24.85,24.85,0,0,1-2-1.89c-0.51-.52-1-1.07-1.46-1.64Z"/><path class="cls-1" d="M647.67,297.48a9.44,9.44,0,0,1-1.5,3.27,9,9,0,0,1-2.75,2.48,11.14,11.14,0,0,1-7.93,1.09,12.19,12.19,0,0,1-7.32-4.66,12.34,12.34,0,0,1-1.93-4.16l-0.14-.58v0c1.88-.06,3.81-0.12,5.77-0.22,3.61-.14,7.34-0.34,11.17-0.61,1.65-.11,3.31-0.24,5-0.39,0,0.09,0,.17,0,0.25A13.71,13.71,0,0,1,647.67,297.48Z"/><path class="cls-1" d="M649.8,289.79a11,11,0,0,0-1.83-3.14,10.64,10.64,0,0,0-2.56-2.2,10.76,10.76,0,0,0-5.31-1.61,7,7,0,0,0-4,1,3.71,3.71,0,0,0-1.09,1.07,3.55,3.55,0,0,0-.55,1.94,2.11,2.11,0,1,0,2.06-2.15l-0.27,0,0.28-.16a6.15,6.15,0,0,1,3.47-.43,9.59,9.59,0,0,1,4.41,1.82,8.93,8.93,0,0,1,3,3.94l-4.55.18-5.65.28q-2.78.13-5.48,0.29l-5.86.32c0-.1,0-0.2,0-0.3a14.34,14.34,0,0,1,3.89-9.05,12.44,12.44,0,0,1,4.16-2.84,11.56,11.56,0,0,1,5-.84,12.11,12.11,0,0,1,2.59.44l0.64,0.19,0.29,0.1,0.35,0.13,0.19,0.07,0.13,0.06,0.33,0.15,0.67,0.29a25.12,25.12,0,0,1,5,3.08,26.54,26.54,0,0,1,2.24,2c0.73,0.71,1.42,1.47,2.11,2.26s1.6,1.9,2.4,2.9Z"/><path class="cls-1" d="M273.71,271.63a34.77,34.77,0,0,0-4.71,4.56,27.17,27.17,0,0,0-3.62,5.53l-0.35.74-0.17.37,0,0.09-0.05.12-0.07.17c-0.05.13-.09,0.21-0.15,0.37l-0.16.43c-0.09.27-.19,0.55-0.27,0.82a16.13,16.13,0,0,0-.65,3.42,15.12,15.12,0,0,0,1,6.82,16,16,0,0,0,3.76,5.58,17.48,17.48,0,0,0,5.46,3.56,18.73,18.73,0,0,0,6.15,1.36l0.79,0c0.15,3.08.33,6,.45,8.84,0.06,1.44.15,2.84,0.2,4.22,0,0.69.05,1.37,0.08,2l0,0.5c0,0.15,0,.29,0,0.44s0,0.58,0,.86a6.47,6.47,0,0,1-.86,2.92,3.92,3.92,0,0,1-2,1.64,5.71,5.71,0,0,1-2.66.22,6.45,6.45,0,0,1-2.41-.84,5.67,5.67,0,0,1-.49-0.33l-0.11-.08-0.13-.11-0.19-.18a3.93,3.93,0,0,1-.62-0.87,4.62,4.62,0,0,1-.51-2c0-.08,0-0.16,0-0.24a3.23,3.23,0,0,0,6.08-1.59,3.45,3.45,0,0,0-3-3,3.81,3.81,0,0,0-3.15,1.13A5.88,5.88,0,0,0,270,322.7a7.16,7.16,0,0,0,.56,2.77,5.1,5.1,0,0,0,.75,1.28l0.26,0.3,0.12,0.12,0.14,0.14a7,7,0,0,0,.6.51,8.21,8.21,0,0,0,3,1.41,7.57,7.57,0,0,0,3.71,0,6.37,6.37,0,0,0,3.52-2.35,8.73,8.73,0,0,0,1.58-4.1c0.05-.36.09-0.73,0.11-1.09v-0.55c0-.17,0-0.33,0-0.5,0-.67,0-1.34,0-2,0-1.37,0-2.8,0-4.26,0-2.91-.07-5.93-0.12-9.09l0.12,0,0.75-.16,0.74-.2a15.54,15.54,0,0,0,5.39-2.73,15.36,15.36,0,0,0,3.78-4.43,16,16,0,0,0,1.86-5.22,14.12,14.12,0,0,0-2-10.05,11.24,11.24,0,0,0-3.51-3.41,11.92,11.92,0,0,0-4.25-1.6,14.9,14.9,0,0,0-4.1-.13l-0.3,0q-0.34-3.62-.75-7.34a38.56,38.56,0,0,0,3.85-3.76,24.59,24.59,0,0,0,2-2.71l0.41-.74,0.43-.73c0.28-.48.61-1,0.87-1.49l0.36-.7,0.2-.39,0.18-.39c0.22-.53.41-1.07,0.58-1.62a21.41,21.41,0,0,0,.75-3.33,25.33,25.33,0,0,0,0-6.71,29.94,29.94,0,0,0-1.55-6.42c-0.74-2.06-2.11-6.95-5.07-8.46s-6.72-1.41-6.9,11c0,1,0,2.08,0,3.11s0,2.07.08,3.09q0.1,3.08.2,6.12t0.23,6q0.11,2.85.2,5.64l-0.25.2C277.07,269,275.37,270.27,273.71,271.63Z"/><path class="cls-1" d="M283.26,279.87a13.1,13.1,0,0,1,3.37.35,9,9,0,0,1,3.11,1.43,8.62,8.62,0,0,1,2.36,2.62,10.59,10.59,0,0,1,1,7.55,11.28,11.28,0,0,1-8.39,8.8l-0.55.13h0c-0.06-1.79-.12-3.62-0.2-5.49-0.14-3.44-.32-7-0.58-10.63-0.1-1.57-.23-3.15-0.37-4.75h0.24Z"/><path class="cls-1" d="M280.76,245.64c0-.93.06-1.86,0.12-2.79s0.15-1.85.29-2.76a12.59,12.59,0,0,1,1.08-3.7c1-1.84,2.67.19,3,.51a11,11,0,0,1,1.55,2.18,23.52,23.52,0,0,1,2.63,10.65,20.49,20.49,0,0,1-.64,5.38,16.69,16.69,0,0,1-.87,2.51c-0.18.4-.37,0.8-0.58,1.18l-0.16.29-0.16.27-0.37.62-0.36.54c-0.12.18-.24,0.36-0.37,0.54l-0.39.54-0.42.52a23.38,23.38,0,0,1-1.8,2c-0.5.48-1,.94-1.56,1.39q-0.12-1.66-.25-3.34c-0.14-1.79-.27-3.6-0.38-5.42s-0.21-3.66-.28-5.5S280.73,247.5,280.76,245.64Z"/><path class="cls-1" d="M279.1,272.47q0.1,2.9.2,5.73a10.52,10.52,0,0,0-3,1.74,10.32,10.32,0,0,0-3.63,7.49,6.68,6.68,0,0,0,.92,3.8,3.56,3.56,0,0,0,1,1,3.39,3.39,0,0,0,1.85.53,2,2,0,1,0-2-2,2.06,2.06,0,0,0,0,.26c-0.05-.08-0.1-0.17-0.15-0.27a5.85,5.85,0,0,1-.41-3.3,9.1,9.1,0,0,1,1.73-4.19,8.5,8.5,0,0,1,3.75-2.82c0.05,1.46.11,2.9,0.17,4.33q0.13,2.73.26,5.38t0.27,5.22l0.3,5.58h-0.28a13.65,13.65,0,0,1-8.62-3.7,11.81,11.81,0,0,1-2.7-4,11,11,0,0,1-.8-4.77,11.47,11.47,0,0,1,.42-2.47c0.05-.2.12-0.41,0.19-0.61l0.1-.27c0-.08.09-0.22,0.13-0.33l0.07-.18,0.06-.13,0.14-.32,0.28-.64a23.8,23.8,0,0,1,2.93-4.74,25.08,25.08,0,0,1,1.9-2.13c0.67-.69,1.4-1.35,2.15-2S278.15,273.24,279.1,272.47Z"/><path class="cls-1" d="M224.1,513.13a21.16,21.16,0,0,0,6.63-3.18,18.75,18.75,0,0,0,7.52-11.34,15,15,0,0,0-.12-6.49,15.87,15.87,0,0,0-2.51-5.48,19.93,19.93,0,0,0-3.75-4l-0.32-.25q3.06-3.73,6.15-7.62a51.12,51.12,0,0,0,7.15.06,32.47,32.47,0,0,0,4.42-.69l1.08-.32,1.09-.28c0.71-.19,1.5-0.36,2.22-0.59l1-.32,0.55-.19,0.53-.21c0.7-.3,1.39-0.63,2.06-1a28.21,28.21,0,0,0,3.82-2.45,33.53,33.53,0,0,0,6.29-6.3,39.88,39.88,0,0,0,4.54-7.5c1.23-2.64,4.51-8.53,3.13-12.72s-5-7.62-16.79,3.92c-1,1-1.93,2-2.87,3s-1.89,2-2.82,3l-5.53,6-5.42,5.9-5.09,5.51-0.43,0c-2.7-.33-5.45-0.75-8.29-1a46,46,0,0,0-8.7-.11,36.13,36.13,0,0,0-8.58,1.83l-1,.38-0.51.19-0.13,0-0.17.07L209,471l-0.48.21-0.56.25c-0.35.17-.69,0.34-1,0.52a21.38,21.38,0,0,0-3.81,2.62,20.05,20.05,0,0,0-5.4,7.4,21.25,21.25,0,0,0-1.68,8.78,23.21,23.21,0,0,0,1.82,8.46,24.87,24.87,0,0,0,4.53,7q0.35,0.39.72,0.76c-2.73,3-5.34,6-7.84,8.75-1.29,1.42-2.51,2.81-3.76,4.16l-1.83,2-0.45.49-0.4.43c-0.27.27-.55,0.54-0.83,0.78a8.59,8.59,0,0,1-3.54,2,5.2,5.2,0,0,1-3.47-.37,7.53,7.53,0,0,1-2.72-2.28,8.52,8.52,0,0,1-1.49-3c-0.06-.26-0.12-0.52-0.15-0.77l0-.18,0-.22v-0.35a5.32,5.32,0,0,1,.22-1.39,6.16,6.16,0,0,1,1.35-2.32l0.22-.22a4.29,4.29,0,0,0,7.22,4.18c1.49-1.57,1.06-4.44,0-5.6a5.06,5.06,0,0,0-4-1.89,7.81,7.81,0,0,0-4.5,2.05,9.42,9.42,0,0,0-2.06,3.14,6.82,6.82,0,0,0-.49,1.91c0,0.18,0,.35,0,0.54v0.49a9.66,9.66,0,0,0,.08,1,11,11,0,0,0,1.48,4.11,10,10,0,0,0,3.48,3.49,8.45,8.45,0,0,0,5.52,1.08,11.59,11.59,0,0,0,5.32-2.38c0.39-.29.76-0.6,1.12-0.93l0.27-.25,0.15-.13,0.12-.12,0.48-.46,1.94-1.87c1.32-1.25,2.65-2.61,4-4,2.73-2.73,5.48-5.65,8.39-8.68l0.13,0.09,0.86,0.55,0.88,0.51a20.62,20.62,0,0,0,7.63,2.47A20.4,20.4,0,0,0,224.1,513.13Z"/><path class="cls-1" d="M207.18,502.48l-0.25-.28a18.12,18.12,0,0,1-4.66-11.55,15.69,15.69,0,0,1,1.16-6.27,14.65,14.65,0,0,1,3.71-5.24,15.41,15.41,0,0,1,2.7-1.94c0.24-.14.5-0.27,0.74-0.4l0.35-.17,0.43-.2,0.23-.1,0.17-.07,0.43-.17,0.86-.34a31.6,31.6,0,0,1,7.2-1.73,32.61,32.61,0,0,1,3.78-.24c1.28,0,2.58,0,3.9.12,1.55,0.1,3.13.26,4.74,0.42l-5.17,5.59a14,14,0,0,0-4.44-1.15,13.69,13.69,0,0,0-10.43,3.68,8.88,8.88,0,0,0-2.69,4.44,4.76,4.76,0,0,0,0,1.94,4.5,4.5,0,0,0,1.25,2.23,2.66,2.66,0,1,0-.1-3.76,2.78,2.78,0,0,0-.22.26c0-.13.06-0.26,0.11-0.39a7.76,7.76,0,0,1,2.7-3.49,12.09,12.09,0,0,1,5.55-2.34,11.23,11.23,0,0,1,6.17.86l-3.89,4.24-4.78,5.32q-2.36,2.62-4.62,5.18Z"/><path class="cls-1" d="M211,505.77l0,0c1.62-1.74,3.28-3.53,4.94-5.37,3.09-3.37,6.23-6.89,9.39-10.57,1.36-1.57,2.73-3.19,4.1-4.82l0.24,0.22a17.45,17.45,0,0,1,2.84,3.48,11.94,11.94,0,0,1,1.6,4.26,11.43,11.43,0,0,1-.23,4.68,14.07,14.07,0,0,1-6.08,8.08,15,15,0,0,1-16.14.45Z"/><path class="cls-1" d="M550.08,416.63L525.9,397.78a1.32,1.32,0,1,1,1.62-2.07l27.79,21.68a1.61,1.61,0,0,1,.31.43,9,9,0,0,1,3.32,7.59c-0.22,4.66-3.68,8.22-7.73,8s-7.16-4.25-6.94-8.91C544.45,420.57,547.05,417.24,550.08,416.63Z"/><path class="cls-1" d="M479.86,299.92l27.58-13.4a1.32,1.32,0,1,1,1.15,2.37l-31.71,15.4a1.58,1.58,0,0,1-.52.09,9,9,0,0,1-8.28-.36c-4.08-2.25-5.76-6.92-3.74-10.45s7-4.56,11.05-2.31C478.81,293.14,480.65,296.94,479.86,299.92Z"/><path class="cls-1" d="M401.12,495.56s-9.59-6.41-13.44-12.45-1.77-14.25,4.31-15c5.77-.7,8.53,4.29,9.13,6,0.6-1.75,3.36-6.74,9.13-6,6.09,0.74,8.16,8.94,4.31,15S401.12,495.56,401.12,495.56Z"/><path class="cls-1" d="M628.87,212.14c-2.32-3.63-1.07-8.57,2.59-9,3.47-.42,5.13,2.58,5.49,3.63,0.36-1.05,2-4.05,5.49-3.63,3.66,0.44,4.91,5.38,2.59,9s-8.09,7.49-8.09,7.49S631.19,215.77,628.87,212.14Z"/><path class="cls-1" d="M310.82,436.08c-2.32-3.63-1.07-8.57,2.59-9,3.47-.42,5.13,2.58,5.49,3.63,0.36-1.05,2-4.05,5.49-3.63,3.66,0.44,4.91,5.38,2.59,9s-8.09,7.49-8.09,7.49S313.13,439.71,310.82,436.08Z"/><path class="cls-1" d="M387.68,270c-3.85-6-1.77-14.25,4.31-15,5.77-.7,8.53,4.29,9.13,6,0.6-1.75,3.36-6.74,9.13-6,6.09,0.74,8.16,8.95,4.31,15s-13.44,12.45-13.44,12.45S391.53,276,387.68,270Z"/><path class="cls-1" d="M309.06,225c-6.7,7.25-4.92,25.62.47,32.88s0.87,15,.87,15c6.1-1,11.83,4.51,13.39,14,1.9,11.6-7.77,15-7.77,15,4.35,2.9-7,21.76,1.21,33.36,6.33,8.93,14.08,9.58,20.41,9.52l1,40.24h-2.34c-0.48-1-1.33-.77-2.3-0.77a2.92,2.92,0,0,0-2.73,2.95,2.53,2.53,0,0,0,2.73,2.49,2.65,2.65,0,0,0,2.3-1.66h2.42l0.1,5h-2.52a2.38,2.38,0,0,0-2.3-1.39,2.83,2.83,0,0,0-2.73,2.84A2.66,2.66,0,0,0,334,397.1c1,0,1.82-1.1,2.3-1.1h2.6l0.18,7.47c-7.66,6.29.41,13.63,3.79,13.63s11.46-7.39,3.79-13.67l0.18-7.43h2.6c0.48,0,1.33,1.11,2.3,1.11a2.8,2.8,0,0,0,2.73-2.81,2.67,2.67,0,0,0-2.73-2.66,2.34,2.34,0,0,0-2.3,1.35H346.9l0.11-5h2.42a2.73,2.73,0,0,0,2.3,1.73,2.54,2.54,0,0,0,2.73-2.5,3.09,3.09,0,0,0-2.73-3.12c-1,0-1.82-.11-2.3.89h-2.34l1-40.24c6.32,0.05,14.08-.72,20.4-9.65,8.22-11.6-3.14-30.39,1.21-33.29,0,0-9.67-3.35-7.77-15,1.56-9.51,7.29-15,13.39-14,0,0-4.52-7.73.87-15s7.17-25.62.47-32.87-18.32-12.84-33.79-12.84S315.76,217.76,309.06,225Z"/><path class="cls-1" d="M348.25,289.11a2.28,2.28,0,0,1-1-.22,3.08,3.08,0,0,0,3,1.28,3.46,3.46,0,0,0,.68-0.12l0.11,0,0,0,0.1,0,0.39-.17a0.45,0.45,0,0,0,.23-0.18,1.1,1.1,0,0,1,.17-0.14c0.13-.19.29-0.33,0.41-0.54a9.78,9.78,0,0,0,1-3.18,30.88,30.88,0,0,0,.38-3.87c0.07-1.34.07-2.72,0-4.1s-0.11-2.76-.1-4.23a21.63,21.63,0,0,1,.4-4.28,8,8,0,0,1,1.8-4,3.89,3.89,0,0,1,2-1.18,5,5,0,0,1,2,0,5.55,5.55,0,0,1,2.88,1.46,4.25,4.25,0,0,1,1.19,2,2.3,2.3,0,0,1-1.8,3.65c-3,0-3.21-4.71-.16-4.71a2.46,2.46,0,0,1,.31,0l-0.19-.14a4.84,4.84,0,0,0-2.4-.71,3.43,3.43,0,0,0-1.29.21,2.09,2.09,0,0,0-.93.76,6.93,6.93,0,0,0-1,3,26.48,26.48,0,0,0-.14,3.86c0,1.31.15,2.74,0.19,4.19s0,2.89-.13,4.32a24.54,24.54,0,0,1-.66,4.22,10.1,10.1,0,0,1-1.75,3.87,8.32,8.32,0,0,1-.78.8c-0.18.12-.37,0.24-0.56,0.35a1.91,1.91,0,0,1-.52.24l-0.41.11-0.32.08-0.24,0a5,5,0,0,1-.93,0,4.68,4.68,0,0,1-1.72-.42,4.22,4.22,0,0,1-1.28-1,3.92,3.92,0,0,1-1-2.23c0-.11,0-0.21,0-0.32a2.13,2.13,0,0,1,1.86-3.13C351,284.68,351.12,289.11,348.25,289.11Z"/><path class="cls-1" d="M321.79,267.54a4.26,4.26,0,0,1,1.19-2,5.55,5.55,0,0,1,2.88-1.46,5,5,0,0,1,2,0,3.88,3.88,0,0,1,2,1.18,8,8,0,0,1,1.8,4,21.63,21.63,0,0,1,.4,4.28c0,1.47-.09,2.86-0.1,4.23s0,2.76,0,4.1a31.07,31.07,0,0,0,.38,3.87,9.73,9.73,0,0,0,1,3.18c0.12,0.21.28,0.35,0.41,0.54a1.09,1.09,0,0,1,.17.14,0.45,0.45,0,0,0,.23.18l0.39,0.17,0.1,0,0,0,0.11,0a3.47,3.47,0,0,0,.68.12,3.2,3.2,0,0,0,2.28-.57,3.14,3.14,0,0,0,.69-0.71,2.28,2.28,0,0,1-1,.22c-2.87,0-2.7-4.44.16-4.44a2.13,2.13,0,0,1,1.86,3.13c0,0.1,0,.2,0,0.32a3.92,3.92,0,0,1-1,2.23,4.23,4.23,0,0,1-1.28,1,4.67,4.67,0,0,1-1.72.42,5,5,0,0,1-.93,0l-0.24,0-0.32-.08-0.41-.11a1.92,1.92,0,0,1-.52-0.24c-0.19-.11-0.38-0.22-0.56-0.35a8.43,8.43,0,0,1-.78-0.8,10.13,10.13,0,0,1-1.75-3.87,24.59,24.59,0,0,1-.66-4.22c-0.1-1.43-.14-2.88-0.13-4.32s0.17-2.89.19-4.19a26.62,26.62,0,0,0-.14-3.86,6.91,6.91,0,0,0-1-3,2.09,2.09,0,0,0-.93-0.76,3.44,3.44,0,0,0-1.29-.21,4.85,4.85,0,0,0-2.4.71l-0.19.14a2.48,2.48,0,0,1,.31,0c3,0,2.87,4.71-.16,4.71A2.3,2.3,0,0,1,321.79,267.54Z"/><path class="cls-1" d="M462.14,428.68c7.45,3.34,5.7,10.24,5.7,10.24,3.35-1.41,9.91,12.39,19.78,12.07,7.59-.24,11.09-4.38,13.48-8.07l23.83,14.94-0.9,1.36a1.4,1.4,0,0,0-1.48.94,2,2,0,0,0,3.26,2.15,1.54,1.54,0,0,0,.1-1.85l0.93-1.4,2.54,1.6-1,1.46a1.6,1.6,0,0,0-1.71.78,2,2,0,0,0,3.26,2.16c0.37-.56.15-1.41,0.34-1.69l1-1.51,4.29,2.69c0.71,6.84,8,4.95,9.29,3s0.19-9.42-6.39-7.38l-4.16-2.9,1-1.51c0.19-.28,1.06-0.41,1.43-1a2,2,0,0,0-.63-2.69,1.85,1.85,0,0,0-2.58.57,1.56,1.56,0,0,0-.09,1.85l-1,1.46L530,454.25l0.93-1.4a1.55,1.55,0,0,0,1.66-.82,1.87,1.87,0,0,0-.52-2.61,2,2,0,0,0-2.75.45,1.4,1.4,0,0,0-.27,1.74l-0.9,1.36-23.08-16.08c2.45-3.64,4.9-8.48,2.15-15.56-3.57-9.2-18.84-9.84-18.86-13.47,0,0-5.66,4.3-11.65-1.24-4.91-4.54-5.89-10-3-13.12,0,0-6.21-.35-8.35-6.24s-12.09-14-18.86-12.86S432.1,380.07,426.17,389s-7.14,17.83-5.5,24.48,13,12.66,19.22,12.32,9,5.23,9,5.23C450.68,427.16,456,425.94,462.14,428.68Z"/><path class="cls-1" d="M462,400.23a3.47,3.47,0,0,1,.75-1.16A3.85,3.85,0,0,1,464.7,398a2.94,2.94,0,0,1,1.6.07,1.6,1.6,0,0,1,1.42,2.44c-1.16,1.76-4,.06-2.79-1.71a1.84,1.84,0,0,1,.14-0.17l-0.16.06a3.35,3.35,0,0,0-1.33,1.12,2.35,2.35,0,0,0-.37.83,1.45,1.45,0,0,0,.08.83,4.82,4.82,0,0,0,1.39,1.73,18.54,18.54,0,0,0,2.18,1.56c0.76,0.49,1.65,1,2.5,1.5s1.67,1.12,2.46,1.73a17.09,17.09,0,0,1,2.19,2,7.08,7.08,0,0,1,1.57,2.5,5.75,5.75,0,0,1,.16.76c0,0.15,0,.3,0,0.45a1.28,1.28,0,0,1-.06.39l-0.1.28-0.08.21-0.08.14a3.46,3.46,0,0,1-.35.55,3.27,3.27,0,0,1-.9.84,2.9,2.9,0,0,1-1,.37,2.75,2.75,0,0,1-1.67-.29l-0.19-.12a1.48,1.48,0,0,1-1.1-2.28c1.1-1.66,3.73-.05,2.63,1.61a1.57,1.57,0,0,1-.52.49,2.15,2.15,0,0,0,.68-0.13,2.21,2.21,0,0,0,1.2-1.1,2.38,2.38,0,0,0,.19-0.44l0-.08V414l0.05-.29a0.32,0.32,0,0,0,0-.2,0.7,0.7,0,0,1,0-.15c-0.06-.15-0.08-0.29-0.16-0.45a6.76,6.76,0,0,0-1.44-1.82,21.29,21.29,0,0,0-2.1-1.7c-0.75-.55-1.55-1.08-2.37-1.59s-1.64-1-2.49-1.56a15,15,0,0,1-2.32-1.87,5.56,5.56,0,0,1-1.61-2.56A2.69,2.69,0,0,1,462,400.23Z"/><path class="cls-1" d="M449.48,421a3.86,3.86,0,0,1,.26-2.22,3.45,3.45,0,0,1,.77-1.14,2.7,2.7,0,0,1,1.43-.68,5.56,5.56,0,0,1,3,.48,15,15,0,0,1,2.63,1.4c0.86,0.56,1.62,1.15,2.42,1.68s1.58,1.08,2.38,1.56a21.42,21.42,0,0,0,2.39,1.26,6.76,6.76,0,0,0,2.24.61c0.17,0,.31,0,0.47,0l0.15,0a0.32,0.32,0,0,0,.19-0.07l0.25-.16,0.06,0h0l0.06-.06a2.44,2.44,0,0,0,.33-0.35,2.22,2.22,0,0,0,.54-1.54,2.14,2.14,0,0,0-.15-0.67,1.55,1.55,0,0,1-.25.67c-1.1,1.66-3.61-.13-2.51-1.79a1.48,1.48,0,0,1,2.53.12l0.18,0.13a2.72,2.72,0,0,1,.92,1.42,2.9,2.9,0,0,1,.07,1.11,3.21,3.21,0,0,1-.42,1.16,3.55,3.55,0,0,1-.36.54l-0.1.13-0.17.16-0.22.2a1.42,1.42,0,0,1-.34.21l-0.41.19a6,6,0,0,1-.76.15,7,7,0,0,1-2.91-.47,17.09,17.09,0,0,1-2.69-1.23c-0.87-.49-1.72-1-2.55-1.58s-1.61-1.21-2.36-1.71a18.54,18.54,0,0,0-2.29-1.4,4.81,4.81,0,0,0-2.14-.6,1.43,1.43,0,0,0-.79.25,2.39,2.39,0,0,0-.62.66,3.34,3.34,0,0,0-.5,1.66c0,0.06,0,.11,0,0.16a1.65,1.65,0,0,1,.1-0.19c1.17-1.76,3.83.14,2.67,1.9a1.6,1.6,0,0,1-2.81-.36A3,3,0,0,1,449.48,421Z"/><path class="cls-1" d="M99.78,337.17a1.06,1.06,0,0,1,.28,0,1.15,1.15,0,0,1,.25,0c1.45,0.24,1.17,2.63-.45,2.62S98.35,337.44,99.78,337.17Z"/><path class="cls-1" d="M99.53,341.29c1.72,0,1.5,2.67-.22,2.66S97.81,341.28,99.53,341.29Z"/><path class="cls-1" d="M104.23,339c1.67,0,1.45,2.59-.21,2.58S102.57,339,104.23,339Z"/><path class="cls-1" d="M624.08,316.79c-6.72-5.74-12.22-5-19.94,1.64a2.93,2.93,0,0,0-3.37.79l-1.42,2c-1.56-1.67-4.23-3.24-7-5.64l-29.1-24.88c-3.3-2.83-5.72-.47-8.55,2.83s-4.78,6.06-1.48,8.88l29.1,24.89c3.17,2.71,5.15,5,6.81,6.26l-0.09.11a2.8,2.8,0,0,0-.83,2.16,2.42,2.42,0,0,0,.84,1.71,2.92,2.92,0,0,1-1-1.85L586.88,337c-15.82,18.52-43.89,28.38-52.33,31l-0.11-.09-0.48-.26a2.74,2.74,0,0,0-3.55,4.16l53.69,45.72a2.78,2.78,0,0,0,3.86-.37c1-1.13.4-2.32-.15-4l0,0-0.21-.18c1.35-9,6.74-37.93,22.4-56.28l0.9-1.06a2.92,2.92,0,0,0,2.76-1l7-8.19c1.13,1,2.9,1.93,4.61.24,2.25-2.24,1.06-4-.26-5.33l0.74-.87a2.93,2.93,0,0,0-.07-3.87C631,328,630.78,322.51,624.08,316.79Z"/><circle class="cls-1" cx="607.01" cy="336.87" r="5.32" transform="translate(-43.55 579.18) rotate(-49.46)"/><path class="cls-1" d="M610,337.67a0.79,0.79,0,0,1-.13.19,1,1,0,0,1-.15.15c-0.93.79-2.3-.67-1.43-1.69S610.62,336.61,610,337.67Z"/><path class="cls-1" d="M607.54,335.29c-0.93,1.09-2.51-.48-1.58-1.57S608.47,334.2,607.54,335.29Z"/><path class="cls-1" d="M606.46,339.5c-0.9,1.06-2.43-.47-1.53-1.52S607.36,338.45,606.46,339.5Z"/><circle class="cls-1" cx="494.94" cy="551.83" r="16.99"/><circle class="cls-1" cx="556.38" cy="551.83" r="16.99"/><path class="cls-1" d="M312,407.35V367a10.18,10.18,0,0,0-9.87-10H296v-0.32c0-6.76-5-12.68-11.72-12.68h-45.8A12.83,12.83,0,0,0,226,356.68V357h-2.13A10.18,10.18,0,0,0,214,367v40.4a9.91,9.91,0,0,0,9.87,9.65h78.26A9.91,9.91,0,0,0,312,407.35Z"/><path class="cls-1" d="M231,356.68c0-3.78,3.7-7.68,7.48-7.68h45.8c3.78,0,5.72,3.9,5.72,7.68V357H231v-0.32Z"/><path class="cls-1" d="M225.44,365h73.61c1.71,0,3.09.21,3.09,1.5s-1.38,1.5-3.09,1.5H225.44c-1.71,0-3.09-.21-3.09-1.5S223.73,365,225.44,365Z"/><circle class="cls-1" cx="236.4" cy="395.08" r="17.42"/><circle class="cls-1" cx="289.22" cy="395.08" r="17.42"/><circle class="cls-1" cx="236.4" cy="395.08" r="14.61"/><circle class="cls-1" cx="289.22" cy="395.08" r="14.61"/><circle class="cls-1" cx="154.85" cy="226.57" r="10.86"/><circle class="cls-1" cx="575.41" cy="161.85" r="18.86"/><path class="cls-1" d="M448.39,491.36a47.38,47.38,0,0,1-3.68,18.25,5.06,5.06,0,0,1,1.15,5.38l-4.65,12.16a5.05,5.05,0,0,1-5.36,3.21A6.42,6.42,0,0,1,430,531l-0.43-.17a8,8,0,0,1-8.12,1.48l-4.34-1.66a8,8,0,0,1-4.59-10.28l6.86-17.95a8,8,0,0,1,10.28-4.59l4.34,1.66a7.93,7.93,0,0,1,4.54,4.49l1.57,0.6a6.5,6.5,0,0,1,1.16.58,42.4,42.4,0,1,0-80.19,0,6.56,6.56,0,0,1,1.15-.58l1.57-.6a7.93,7.93,0,0,1,4.54-4.49l4.33-1.66a8,8,0,0,1,10.28,4.59l6.86,17.95a8,8,0,0,1-4.59,10.28l-4.34,1.66a8,8,0,0,1-8.12-1.48l-0.43.17a6.42,6.42,0,0,1-5.89-.67,5.05,5.05,0,0,1-5.35-3.21L356.38,515a5.05,5.05,0,0,1,1.11-5.34A47.29,47.29,0,1,1,448.39,491.36Z"/><path class="cls-1" d="M439.92,284.51c3.49-5.35,7.77-11.76,24-13.61s79.84-3.47,90.95-3.84A9.24,9.24,0,0,0,556,267v5h3v3h-3v3h7v-3h-2v-3h2v-5.47a11.64,11.64,0,0,1,2.9-1.53H567v7h4v3h-4v3h7v-3h-1v-3h1v-7h5v7h3v3h-3v3h7v-3h-2v-3h2v-7h36.6c3.38,0,6.59-.32,9.4-1.85a0.87,0.87,0,0,1,.38-0.15h31.95a7.21,7.21,0,0,1,.25.85,5.5,5.5,0,0,0,5,3.37,5.39,5.39,0,0,0,1.74-.25,1.85,1.85,0,0,0,1.62,1A2.13,2.13,0,0,0,675,265.6v-8a2.15,2.15,0,0,0-2.08-2.4,2.18,2.18,0,0,0-2,1.46,4.81,4.81,0,0,0-1.39-.21,5.36,5.36,0,0,0-5.34,5.16c0-.12,0-0.17,0-0.27A5.09,5.09,0,0,1,665.4,258h-27c2.12-3,2.59-6.56,2.59-10.52v-0.37c0-10.51-7.88-20.11-18.4-20.11H586V215h-7v12h-5V215h-7v12h-4V215h-7v12H513.26c-4.19,0-8.26,4.31-8.26,8.5v0.05c0,4.19,4.07,7.44,8.26,7.44H517a19.49,19.49,0,0,0-.23,2.94,18,18,0,0,0,5.57,13.13c15.25,0.49,28.11.87,32.63,1a8.22,8.22,0,0,1,1.22.1,10.48,10.48,0,0,0-1.22-.08c-4.52-.15-17.58-0.51-32.83-1-22.27-.72-48.67-1.74-58.31-2.84-16.23-1.85-20.47-8.27-24-13.61-2.54-3.89-5.58-8-7.06-2.78a89.87,89.87,0,0,0-3.69,23.7,89.69,89.69,0,0,0,3.71,23.7C434.3,292.47,437.38,288.4,439.92,284.51Z"/><path class="cls-1" d="M586,233.53V233h20.7c1.33,0,2.41.67,2.41,2s-1.08,2-2.41,2H586v-3.47Z"/><path class="cls-1" d="M586,243.15V243h20.33c4.19,0,6.67-3.25,6.67-7.44V235.5c0-1,.72-2.5.38-3.5h9.22c7.66,0,13.4,7.45,13.4,15.11v0.37A12.16,12.16,0,0,1,630.44,258a13.65,13.65,0,0,1-7.9,2.09,20.25,20.25,0,0,0,8.08-2.1H586V243.15Z"/><polygon class="cls-1" points="574 233.53 574 233 579 233 579 233.53 579 237 574 237 574 233.53"/><polygon class="cls-1" points="574 243.15 574 243 579 243 579 243.15 579 258 574 258 574 243.15"/><polygon class="cls-1" points="563 233.53 563 233 567 233 567 233.53 567 237 563 237 563 233.53"/><polygon class="cls-1" points="563 243.15 563 243 567 243 567 243.15 567 258 563 258 563 243.15"/><path class="cls-1" d="M556,233v4H524.33c1.79-2,4.51-3,7.88-4H556Z"/><path class="cls-1" d="M513.69,237c-1.33,0-2.41-.67-2.41-2s1.08-2,2.41-2h8.21c-1.39,1-2.54,3-3.4,4h-4.81Z"/><path class="cls-1" d="M534.66,258a12.35,12.35,0,0,1-12.72-12.46,13.47,13.47,0,0,1,.26-2.54H556v15H534.66Z"/></g></svg>